%TF.GenerationSoftware,KiCad,Pcbnew,9.0.7*%
%TF.CreationDate,2026-01-20T13:18:06+01:00*%
%TF.ProjectId,OpenBrewer,4f70656e-4272-4657-9765-722e6b696361,rev?*%
%TF.SameCoordinates,Original*%
%TF.FileFunction,Copper,L2,Bot*%
%TF.FilePolarity,Positive*%
%FSLAX46Y46*%
G04 Gerber Fmt 4.6, Leading zero omitted, Abs format (unit mm)*
G04 Created by KiCad (PCBNEW 9.0.7) date 2026-01-20 13:18:06*
%MOMM*%
%LPD*%
G01*
G04 APERTURE LIST*
G04 Aperture macros list*
%AMRoundRect*
0 Rectangle with rounded corners*
0 $1 Rounding radius*
0 $2 $3 $4 $5 $6 $7 $8 $9 X,Y pos of 4 corners*
0 Add a 4 corners polygon primitive as box body*
4,1,4,$2,$3,$4,$5,$6,$7,$8,$9,$2,$3,0*
0 Add four circle primitives for the rounded corners*
1,1,$1+$1,$2,$3*
1,1,$1+$1,$4,$5*
1,1,$1+$1,$6,$7*
1,1,$1+$1,$8,$9*
0 Add four rect primitives between the rounded corners*
20,1,$1+$1,$2,$3,$4,$5,0*
20,1,$1+$1,$4,$5,$6,$7,0*
20,1,$1+$1,$6,$7,$8,$9,0*
20,1,$1+$1,$8,$9,$2,$3,0*%
G04 Aperture macros list end*
%TA.AperFunction,ComponentPad*%
%ADD10C,1.980000*%
%TD*%
%TA.AperFunction,ComponentPad*%
%ADD11R,1.800000X1.800000*%
%TD*%
%TA.AperFunction,ComponentPad*%
%ADD12C,1.800000*%
%TD*%
%TA.AperFunction,ComponentPad*%
%ADD13C,3.000000*%
%TD*%
%TA.AperFunction,ComponentPad*%
%ADD14RoundRect,0.250000X0.350000X0.625000X-0.350000X0.625000X-0.350000X-0.625000X0.350000X-0.625000X0*%
%TD*%
%TA.AperFunction,ComponentPad*%
%ADD15O,1.200000X1.750000*%
%TD*%
%TA.AperFunction,ComponentPad*%
%ADD16RoundRect,0.250000X0.600000X0.750000X-0.600000X0.750000X-0.600000X-0.750000X0.600000X-0.750000X0*%
%TD*%
%TA.AperFunction,ComponentPad*%
%ADD17O,1.700000X2.000000*%
%TD*%
%TA.AperFunction,ComponentPad*%
%ADD18R,2.000000X1.905000*%
%TD*%
%TA.AperFunction,ComponentPad*%
%ADD19O,2.000000X1.905000*%
%TD*%
%TA.AperFunction,ComponentPad*%
%ADD20RoundRect,0.250000X-0.950000X-0.550000X0.950000X-0.550000X0.950000X0.550000X-0.950000X0.550000X0*%
%TD*%
%TA.AperFunction,ComponentPad*%
%ADD21O,2.400000X1.600000*%
%TD*%
%TA.AperFunction,SMDPad,CuDef*%
%ADD22RoundRect,0.237500X-0.250000X-0.237500X0.250000X-0.237500X0.250000X0.237500X-0.250000X0.237500X0*%
%TD*%
%TA.AperFunction,SMDPad,CuDef*%
%ADD23RoundRect,0.250000X-0.400000X-0.625000X0.400000X-0.625000X0.400000X0.625000X-0.400000X0.625000X0*%
%TD*%
%TA.AperFunction,SMDPad,CuDef*%
%ADD24RoundRect,0.375000X0.375000X-0.625000X0.375000X0.625000X-0.375000X0.625000X-0.375000X-0.625000X0*%
%TD*%
%TA.AperFunction,SMDPad,CuDef*%
%ADD25RoundRect,0.500000X1.400000X-0.500000X1.400000X0.500000X-1.400000X0.500000X-1.400000X-0.500000X0*%
%TD*%
%TA.AperFunction,ViaPad*%
%ADD26C,0.600000*%
%TD*%
%TA.AperFunction,Conductor*%
%ADD27C,0.400000*%
%TD*%
%TA.AperFunction,Conductor*%
%ADD28C,0.500000*%
%TD*%
%TA.AperFunction,Conductor*%
%ADD29C,0.200000*%
%TD*%
%TA.AperFunction,Conductor*%
%ADD30C,0.600000*%
%TD*%
G04 APERTURE END LIST*
D10*
%TO.P,J4,1_1,1_1*%
%TO.N,Net-(PS1-AC{slash}N)*%
X193000000Y-83040000D03*
%TO.P,J4,1_2,1_2*%
X193000000Y-77960000D03*
%TD*%
D11*
%TO.P,D4,1,K*%
%TO.N,GND*%
X162460000Y-63000000D03*
D12*
%TO.P,D4,2,A*%
%TO.N,HEAT*%
X165000000Y-63000000D03*
%TD*%
D13*
%TO.P,F1,1*%
%TO.N,Net-(F1-Pad1)*%
X123500000Y-96500000D03*
%TO.P,F1,2*%
%TO.N,Net-(PS1-AC{slash}L)*%
X123500000Y-74000000D03*
%TD*%
D14*
%TO.P,J1,1,Pin_1*%
%TO.N,GND*%
X166000000Y-58000000D03*
D15*
%TO.P,J1,2,Pin_2*%
%TO.N,5V*%
X164000000Y-58000000D03*
%TO.P,J1,3,Pin_3*%
%TO.N,12V*%
X162000000Y-58000000D03*
%TO.P,J1,4,Pin_4*%
%TO.N,HEAT*%
X160000000Y-58000000D03*
%TO.P,J1,5,Pin_5*%
%TO.N,PUMP*%
X158000000Y-58000000D03*
%TO.P,J1,6,Pin_6*%
%TO.N,FLOW*%
X156000000Y-58000000D03*
%TO.P,J1,7,Pin_7*%
%TO.N,TEMP*%
X154000000Y-58000000D03*
%TO.P,J1,8,Pin_8*%
%TO.N,DEBUG-LED*%
X152000000Y-58000000D03*
%TD*%
D10*
%TO.P,J5,1_1,1_1*%
%TO.N,Net-(Q1-A2)*%
X193000000Y-70540000D03*
%TO.P,J5,1_2,1_2*%
X193000000Y-65460000D03*
%TD*%
D14*
%TO.P,J3,1,Pin_1*%
%TO.N,GND*%
X146000000Y-58000000D03*
D15*
%TO.P,J3,2,Pin_2*%
%TO.N,5V*%
X144000000Y-58000000D03*
%TO.P,J3,3,Pin_3*%
%TO.N,TEMP*%
X142000000Y-58000000D03*
%TD*%
D11*
%TO.P,D2,1,K*%
%TO.N,Net-(D2-K)*%
X146500000Y-67500000D03*
D12*
%TO.P,D2,2,A*%
%TO.N,5V*%
X143960000Y-67500000D03*
%TD*%
D11*
%TO.P,D3,1,K*%
%TO.N,GND*%
X159960000Y-71000000D03*
D12*
%TO.P,D3,2,A*%
%TO.N,PUMP*%
X162500000Y-71000000D03*
%TD*%
D10*
%TO.P,J8,1_1,1_1*%
%TO.N,Net-(F1-Pad1)*%
X114500000Y-87540000D03*
%TO.P,J8,1_2,1_2*%
X114500000Y-82460000D03*
%TD*%
D16*
%TO.P,PS1,1,AC/L*%
%TO.N,Net-(PS1-AC{slash}L)*%
X162580000Y-93000000D03*
D17*
%TO.P,PS1,2,AC/N*%
%TO.N,Net-(PS1-AC{slash}N)*%
X162580000Y-88000000D03*
%TO.P,PS1,3,-Vout*%
%TO.N,GND*%
X133500000Y-98000000D03*
%TO.P,PS1,4,+Vout*%
%TO.N,12V*%
X133500000Y-83000000D03*
%TD*%
D18*
%TO.P,Q1,1,A1*%
%TO.N,Net-(PS1-AC{slash}N)*%
X188000000Y-103040000D03*
D19*
%TO.P,Q1,2,A2*%
%TO.N,Net-(Q1-A2)*%
X188000000Y-100500000D03*
%TO.P,Q1,3,G*%
%TO.N,Net-(Q1-G)*%
X188000000Y-97960000D03*
%TD*%
D10*
%TO.P,J7,1_1,1_1*%
%TO.N,Net-(PS1-AC{slash}L)*%
X114500000Y-76540000D03*
%TO.P,J7,1_2,1_2*%
X114500000Y-71460000D03*
%TD*%
%TO.P,J6,1_1,1_1*%
%TO.N,Net-(Q2-A2)*%
X189540000Y-54000000D03*
%TO.P,J6,1_2,1_2*%
X184460000Y-54000000D03*
%TD*%
D14*
%TO.P,J2,1,Pin_1*%
%TO.N,GND*%
X176500000Y-58000000D03*
D15*
%TO.P,J2,2,Pin_2*%
%TO.N,FLOW*%
X174500000Y-58000000D03*
%TO.P,J2,3,Pin_3*%
%TO.N,5V*%
X172500000Y-58000000D03*
%TD*%
D20*
%TO.P,U1,1*%
%TO.N,HEAT*%
X165425000Y-71960000D03*
D21*
%TO.P,U1,2*%
%TO.N,Net-(R1-Pad2)*%
X165425000Y-74500000D03*
%TO.P,U1,3,NC*%
%TO.N,unconnected-(U1-NC-Pad3)*%
X165425000Y-77040000D03*
%TO.P,U1,4*%
%TO.N,Net-(PS1-AC{slash}N)*%
X175585000Y-77040000D03*
%TO.P,U1,5,NC*%
%TO.N,unconnected-(U1-NC-Pad5)*%
X175585000Y-74500000D03*
%TO.P,U1,6*%
%TO.N,Net-(R4-Pad1)*%
X175585000Y-71960000D03*
%TD*%
D10*
%TO.P,J9,1_1,1_1*%
%TO.N,Net-(PS1-AC{slash}L)*%
X114500000Y-93960000D03*
%TO.P,J9,1_2,1_2*%
X114500000Y-99040000D03*
%TD*%
D20*
%TO.P,U2,1*%
%TO.N,PUMP*%
X168840000Y-63460000D03*
D21*
%TO.P,U2,2*%
%TO.N,Net-(R3-Pad2)*%
X168840000Y-66000000D03*
%TO.P,U2,3,NC*%
%TO.N,unconnected-(U2-NC-Pad3)*%
X168840000Y-68540000D03*
%TO.P,U2,4*%
%TO.N,Net-(PS1-AC{slash}N)*%
X179000000Y-68540000D03*
%TO.P,U2,5,NC*%
%TO.N,unconnected-(U2-NC-Pad5)*%
X179000000Y-66000000D03*
%TO.P,U2,6*%
%TO.N,Net-(R2-Pad1)*%
X179000000Y-63460000D03*
%TD*%
D22*
%TO.P,R2,1*%
%TO.N,Net-(R2-Pad1)*%
X181587500Y-66500000D03*
%TO.P,R2,2*%
%TO.N,Net-(Q2-G)*%
X183412500Y-66500000D03*
%TD*%
D23*
%TO.P,R3,1*%
%TO.N,GND*%
X162500000Y-66000000D03*
%TO.P,R3,2*%
%TO.N,Net-(R3-Pad2)*%
X165600000Y-66000000D03*
%TD*%
D24*
%TO.P,Q2,1,A1*%
%TO.N,Net-(PS1-AC{slash}N)*%
X189300000Y-63650000D03*
%TO.P,Q2,2,A2*%
%TO.N,Net-(Q2-A2)*%
X187000000Y-63650000D03*
%TO.P,Q2,3,G*%
%TO.N,Net-(Q2-G)*%
X184700000Y-63650000D03*
D25*
%TO.P,Q2,4,A4*%
%TO.N,Net-(Q2-A2)*%
X187000000Y-57350000D03*
%TD*%
D23*
%TO.P,R1,1*%
%TO.N,GND*%
X159450000Y-74500000D03*
%TO.P,R1,2*%
%TO.N,Net-(R1-Pad2)*%
X162550000Y-74500000D03*
%TD*%
D26*
%TO.N,GND*%
X146500000Y-54000000D03*
X166000000Y-54000000D03*
%TO.N,TEMP*%
X142000000Y-56000000D03*
X154000000Y-56000000D03*
%TO.N,FLOW*%
X156000000Y-56000000D03*
X174500000Y-56000000D03*
%TO.N,5V*%
X164000000Y-53000000D03*
X172500000Y-53000000D03*
X144000000Y-52500000D03*
%TO.N,Net-(PS1-AC{slash}N)*%
X195500000Y-102500000D03*
X192500000Y-104000000D03*
X191000000Y-104000000D03*
X194000000Y-104000000D03*
X195500000Y-104000000D03*
X192500000Y-102500000D03*
X194000000Y-102500000D03*
X191000000Y-102500000D03*
%TD*%
D27*
%TO.N,12V*%
X162000000Y-58000000D02*
X137000000Y-83000000D01*
X137000000Y-83000000D02*
X133500000Y-83000000D01*
%TO.N,GND*%
X159960000Y-71000000D02*
X159450000Y-70490000D01*
D28*
X133500000Y-95000000D02*
X133500000Y-98000000D01*
D27*
X162460000Y-63000000D02*
X162460000Y-65960000D01*
X162460000Y-61540000D02*
X162460000Y-63000000D01*
D29*
X159450000Y-71000000D02*
X159450000Y-70490000D01*
D27*
X176500000Y-58000000D02*
X176500000Y-54500000D01*
X177000000Y-54000000D02*
X146500000Y-54000000D01*
D29*
X159450000Y-74500000D02*
X159450000Y-71000000D01*
D27*
X176500000Y-54500000D02*
X177000000Y-54000000D01*
X162500000Y-66000000D02*
X159450000Y-69050000D01*
D29*
X159960000Y-71000000D02*
X159450000Y-71000000D01*
D27*
X162460000Y-65960000D02*
X162500000Y-66000000D01*
X166000000Y-58000000D02*
X162460000Y-61540000D01*
D28*
X162500000Y-66000000D02*
X133500000Y-95000000D01*
D29*
X159450000Y-70490000D02*
X159450000Y-69050000D01*
%TO.N,HEAT*%
X169960000Y-71960000D02*
X165425000Y-71960000D01*
X171500000Y-70500000D02*
X170000000Y-72000000D01*
X165500000Y-63000000D02*
X166500000Y-62000000D01*
X165000000Y-63000000D02*
X165500000Y-63000000D01*
X165000000Y-63000000D02*
X165000000Y-63500000D01*
X170000000Y-72000000D02*
X169960000Y-71960000D01*
X166500000Y-62000000D02*
X171500000Y-62000000D01*
X171500000Y-62000000D02*
X171500000Y-70500000D01*
%TO.N,TEMP*%
X142000000Y-56000000D02*
X154000000Y-56000000D01*
%TO.N,FLOW*%
X156000000Y-56000000D02*
X174500000Y-56000000D01*
%TO.N,5V*%
X164000000Y-53000000D02*
X172500000Y-53000000D01*
X143960000Y-67500000D02*
X143960000Y-58040000D01*
X144000000Y-52500000D02*
X163500000Y-52500000D01*
X143960000Y-58040000D02*
X144000000Y-58000000D01*
X163500000Y-52500000D02*
X164000000Y-53000000D01*
D27*
%TO.N,Net-(R2-Pad1)*%
X181587500Y-66047500D02*
X179000000Y-63460000D01*
X181587500Y-66500000D02*
X181587500Y-66047500D01*
D29*
%TO.N,Net-(Q2-G)*%
X184700000Y-65212500D02*
X183412500Y-66500000D01*
X184700000Y-63650000D02*
X184700000Y-65212500D01*
X184550000Y-63500000D02*
X184700000Y-63650000D01*
%TO.N,Net-(R3-Pad2)*%
X165600000Y-66000000D02*
X168840000Y-66000000D01*
%TO.N,Net-(R1-Pad2)*%
X162550000Y-74500000D02*
X165425000Y-74500000D01*
D30*
%TO.N,Net-(PS1-AC{slash}N)*%
X175585000Y-77040000D02*
X173540000Y-77040000D01*
X172500000Y-69500000D02*
X173460000Y-68540000D01*
X179000000Y-68540000D02*
X184410000Y-68540000D01*
X173540000Y-77040000D02*
X172500000Y-76000000D01*
X173460000Y-68540000D02*
X179000000Y-68540000D01*
X172500000Y-76000000D02*
X172500000Y-69500000D01*
X184410000Y-68540000D02*
X189300000Y-63650000D01*
D28*
%TO.N,Net-(PS1-AC{slash}L)*%
X114500000Y-99040000D02*
X129540000Y-99040000D01*
D29*
X164000000Y-94420000D02*
X162580000Y-93000000D01*
D28*
X164000000Y-103500000D02*
X164000000Y-94420000D01*
X129540000Y-99040000D02*
X135000000Y-104500000D01*
X135000000Y-104500000D02*
X163000000Y-104500000D01*
X163000000Y-104500000D02*
X164000000Y-103500000D01*
%TD*%
%TA.AperFunction,Conductor*%
%TO.N,Net-(Q2-A2)*%
G36*
X191442539Y-52020185D02*
G01*
X191488294Y-52072989D01*
X191499500Y-52124500D01*
X191499500Y-57070186D01*
X191500000Y-57077816D01*
X191500000Y-58376000D01*
X191480315Y-58443039D01*
X191427511Y-58488794D01*
X191376000Y-58500000D01*
X188999999Y-58500000D01*
X188000000Y-59499999D01*
X188000000Y-62134586D01*
X187980315Y-62201625D01*
X187938601Y-62241624D01*
X187872429Y-62280325D01*
X187872428Y-62280326D01*
X187819623Y-62326081D01*
X187819612Y-62326091D01*
X187777451Y-62370807D01*
X187777445Y-62370816D01*
X187726560Y-62470890D01*
X187706877Y-62537921D01*
X187694500Y-62624002D01*
X187694500Y-62741260D01*
X187697610Y-62784738D01*
X187702635Y-62819688D01*
X187705665Y-62837151D01*
X187706653Y-62840603D01*
X187708124Y-62844809D01*
X187709185Y-62848403D01*
X187713948Y-62869037D01*
X187739352Y-62950561D01*
X187739625Y-62951486D01*
X187739626Y-62952418D01*
X187744190Y-62975349D01*
X187744488Y-62978619D01*
X187745000Y-62989873D01*
X187745000Y-64304402D01*
X187725315Y-64371441D01*
X187708681Y-64392083D01*
X187137083Y-64963681D01*
X187075760Y-64997166D01*
X187049402Y-65000000D01*
X186124000Y-65000000D01*
X186056961Y-64980315D01*
X186011206Y-64927511D01*
X186000000Y-64876000D01*
X186000000Y-59500000D01*
X185000000Y-58500000D01*
X183124000Y-58500000D01*
X183056961Y-58480315D01*
X183011206Y-58427511D01*
X183000000Y-58376000D01*
X183000000Y-52124500D01*
X183019685Y-52057461D01*
X183072489Y-52011706D01*
X183124000Y-52000500D01*
X191375500Y-52000500D01*
X191442539Y-52020185D01*
G37*
%TD.AperFunction*%
%TD*%
%TA.AperFunction,Conductor*%
%TO.N,Net-(PS1-AC{slash}L)*%
G36*
X113515677Y-70019685D02*
G01*
X113536319Y-70036319D01*
X113538461Y-70038461D01*
X125840998Y-70494111D01*
X125907263Y-70516263D01*
X125951033Y-70570725D01*
X125958410Y-70640204D01*
X125955449Y-70652746D01*
X122508894Y-82469503D01*
X122477535Y-82522464D01*
X121000000Y-83999999D01*
X121000000Y-101376000D01*
X120980315Y-101443039D01*
X120927511Y-101488794D01*
X120876000Y-101500000D01*
X112000000Y-101500000D01*
X112000000Y-101875500D01*
X111980315Y-101942539D01*
X111927511Y-101988294D01*
X111876000Y-101999500D01*
X110624500Y-101999500D01*
X110557461Y-101979815D01*
X110511706Y-101927011D01*
X110500500Y-101875500D01*
X110500500Y-92500000D01*
X112000000Y-92500000D01*
X117000000Y-92500000D01*
X117000000Y-79000000D01*
X112000000Y-79000000D01*
X112000000Y-92500000D01*
X110500500Y-92500000D01*
X110500500Y-70124000D01*
X110520185Y-70056961D01*
X110572989Y-70011206D01*
X110624500Y-70000000D01*
X113448638Y-70000000D01*
X113515677Y-70019685D01*
G37*
%TD.AperFunction*%
%TD*%
%TA.AperFunction,Conductor*%
%TO.N,Net-(PS1-AC{slash}N)*%
G36*
X190443039Y-62519685D02*
G01*
X190488794Y-62572489D01*
X190500000Y-62624000D01*
X190500000Y-75000000D01*
X196875500Y-75000000D01*
X196942539Y-75019685D01*
X196988294Y-75072489D01*
X196999500Y-75124000D01*
X196999500Y-104875500D01*
X196979815Y-104942539D01*
X196927011Y-104988294D01*
X196875500Y-104999500D01*
X186124500Y-104999500D01*
X186057461Y-104979815D01*
X186011706Y-104927011D01*
X186000500Y-104875500D01*
X186000500Y-102124000D01*
X186020185Y-102056961D01*
X186072989Y-102011206D01*
X186124500Y-102000000D01*
X190500000Y-102000000D01*
X190500000Y-84500000D01*
X188036319Y-82036319D01*
X188002834Y-81974996D01*
X188000000Y-81948638D01*
X188000000Y-64558739D01*
X188005615Y-64521848D01*
X188020007Y-64475662D01*
X188044315Y-64397657D01*
X188050500Y-64329594D01*
X188050500Y-62970406D01*
X188044315Y-62902343D01*
X188005615Y-62778150D01*
X188005408Y-62776795D01*
X188005023Y-62776195D01*
X188000000Y-62741260D01*
X188000000Y-62624000D01*
X188019685Y-62556961D01*
X188072489Y-62511206D01*
X188124000Y-62500000D01*
X190376000Y-62500000D01*
X190443039Y-62519685D01*
G37*
%TD.AperFunction*%
%TD*%
M02*
