%TF.GenerationSoftware,KiCad,Pcbnew,9.0.7*%
%TF.CreationDate,2026-01-20T13:18:07+01:00*%
%TF.ProjectId,OpenBrewer,4f70656e-4272-4657-9765-722e6b696361,rev?*%
%TF.SameCoordinates,Original*%
%TF.FileFunction,Legend,Top*%
%TF.FilePolarity,Positive*%
%FSLAX46Y46*%
G04 Gerber Fmt 4.6, Leading zero omitted, Abs format (unit mm)*
G04 Created by KiCad (PCBNEW 9.0.7) date 2026-01-20 13:18:07*
%MOMM*%
%LPD*%
G01*
G04 APERTURE LIST*
G04 Aperture macros list*
%AMRoundRect*
0 Rectangle with rounded corners*
0 $1 Rounding radius*
0 $2 $3 $4 $5 $6 $7 $8 $9 X,Y pos of 4 corners*
0 Add a 4 corners polygon primitive as box body*
4,1,4,$2,$3,$4,$5,$6,$7,$8,$9,$2,$3,0*
0 Add four circle primitives for the rounded corners*
1,1,$1+$1,$2,$3*
1,1,$1+$1,$4,$5*
1,1,$1+$1,$6,$7*
1,1,$1+$1,$8,$9*
0 Add four rect primitives between the rounded corners*
20,1,$1+$1,$2,$3,$4,$5,0*
20,1,$1+$1,$4,$5,$6,$7,0*
20,1,$1+$1,$6,$7,$8,$9,0*
20,1,$1+$1,$8,$9,$2,$3,0*%
G04 Aperture macros list end*
%ADD10C,0.150000*%
%ADD11C,0.127000*%
%ADD12C,0.120000*%
%ADD13C,2.184000*%
%ADD14R,1.800000X1.800000*%
%ADD15C,1.800000*%
%ADD16C,2.700000*%
%ADD17C,3.000000*%
%ADD18RoundRect,0.250000X0.350000X0.625000X-0.350000X0.625000X-0.350000X-0.625000X0.350000X-0.625000X0*%
%ADD19O,1.200000X1.750000*%
%ADD20RoundRect,0.237500X-0.237500X0.250000X-0.237500X-0.250000X0.237500X-0.250000X0.237500X0.250000X0*%
%ADD21C,4.000000*%
%ADD22RoundRect,0.250000X0.600000X0.750000X-0.600000X0.750000X-0.600000X-0.750000X0.600000X-0.750000X0*%
%ADD23O,1.700000X2.000000*%
%ADD24R,2.000000X1.905000*%
%ADD25O,2.000000X1.905000*%
%ADD26RoundRect,0.250000X-0.950000X-0.550000X0.950000X-0.550000X0.950000X0.550000X-0.950000X0.550000X0*%
%ADD27O,2.400000X1.600000*%
G04 APERTURE END LIST*
D10*
X189914819Y-80833333D02*
X190629104Y-80833333D01*
X190629104Y-80833333D02*
X190771961Y-80880952D01*
X190771961Y-80880952D02*
X190867200Y-80976190D01*
X190867200Y-80976190D02*
X190914819Y-81119047D01*
X190914819Y-81119047D02*
X190914819Y-81214285D01*
X190248152Y-79928571D02*
X190914819Y-79928571D01*
X189867200Y-80166666D02*
X190581485Y-80404761D01*
X190581485Y-80404761D02*
X190581485Y-79785714D01*
X162991905Y-60494819D02*
X162991905Y-59494819D01*
X162991905Y-59494819D02*
X163230000Y-59494819D01*
X163230000Y-59494819D02*
X163372857Y-59542438D01*
X163372857Y-59542438D02*
X163468095Y-59637676D01*
X163468095Y-59637676D02*
X163515714Y-59732914D01*
X163515714Y-59732914D02*
X163563333Y-59923390D01*
X163563333Y-59923390D02*
X163563333Y-60066247D01*
X163563333Y-60066247D02*
X163515714Y-60256723D01*
X163515714Y-60256723D02*
X163468095Y-60351961D01*
X163468095Y-60351961D02*
X163372857Y-60447200D01*
X163372857Y-60447200D02*
X163230000Y-60494819D01*
X163230000Y-60494819D02*
X162991905Y-60494819D01*
X164420476Y-59828152D02*
X164420476Y-60494819D01*
X164182381Y-59447200D02*
X163944286Y-60161485D01*
X163944286Y-60161485D02*
X164563333Y-60161485D01*
X117431009Y-85583333D02*
X117431009Y-85916666D01*
X117954819Y-85916666D02*
X116954819Y-85916666D01*
X116954819Y-85916666D02*
X116954819Y-85440476D01*
X117954819Y-84535714D02*
X117954819Y-85107142D01*
X117954819Y-84821428D02*
X116954819Y-84821428D01*
X116954819Y-84821428D02*
X117097676Y-84916666D01*
X117097676Y-84916666D02*
X117192914Y-85011904D01*
X117192914Y-85011904D02*
X117240533Y-85107142D01*
X158666666Y-60354819D02*
X158666666Y-61069104D01*
X158666666Y-61069104D02*
X158619047Y-61211961D01*
X158619047Y-61211961D02*
X158523809Y-61307200D01*
X158523809Y-61307200D02*
X158380952Y-61354819D01*
X158380952Y-61354819D02*
X158285714Y-61354819D01*
X159666666Y-61354819D02*
X159095238Y-61354819D01*
X159380952Y-61354819D02*
X159380952Y-60354819D01*
X159380952Y-60354819D02*
X159285714Y-60497676D01*
X159285714Y-60497676D02*
X159190476Y-60592914D01*
X159190476Y-60592914D02*
X159095238Y-60640533D01*
X190954819Y-73793333D02*
X191669104Y-73793333D01*
X191669104Y-73793333D02*
X191811961Y-73840952D01*
X191811961Y-73840952D02*
X191907200Y-73936190D01*
X191907200Y-73936190D02*
X191954819Y-74079047D01*
X191954819Y-74079047D02*
X191954819Y-74174285D01*
X190954819Y-72840952D02*
X190954819Y-73317142D01*
X190954819Y-73317142D02*
X191431009Y-73364761D01*
X191431009Y-73364761D02*
X191383390Y-73317142D01*
X191383390Y-73317142D02*
X191335771Y-73221904D01*
X191335771Y-73221904D02*
X191335771Y-72983809D01*
X191335771Y-72983809D02*
X191383390Y-72888571D01*
X191383390Y-72888571D02*
X191431009Y-72840952D01*
X191431009Y-72840952D02*
X191526247Y-72793333D01*
X191526247Y-72793333D02*
X191764342Y-72793333D01*
X191764342Y-72793333D02*
X191859580Y-72840952D01*
X191859580Y-72840952D02*
X191907200Y-72888571D01*
X191907200Y-72888571D02*
X191954819Y-72983809D01*
X191954819Y-72983809D02*
X191954819Y-73221904D01*
X191954819Y-73221904D02*
X191907200Y-73317142D01*
X191907200Y-73317142D02*
X191859580Y-73364761D01*
X189384819Y-93254166D02*
X188908628Y-93587499D01*
X189384819Y-93825594D02*
X188384819Y-93825594D01*
X188384819Y-93825594D02*
X188384819Y-93444642D01*
X188384819Y-93444642D02*
X188432438Y-93349404D01*
X188432438Y-93349404D02*
X188480057Y-93301785D01*
X188480057Y-93301785D02*
X188575295Y-93254166D01*
X188575295Y-93254166D02*
X188718152Y-93254166D01*
X188718152Y-93254166D02*
X188813390Y-93301785D01*
X188813390Y-93301785D02*
X188861009Y-93349404D01*
X188861009Y-93349404D02*
X188908628Y-93444642D01*
X188908628Y-93444642D02*
X188908628Y-93825594D01*
X188718152Y-92397023D02*
X189384819Y-92397023D01*
X188337200Y-92635118D02*
X189051485Y-92873213D01*
X189051485Y-92873213D02*
X189051485Y-92254166D01*
X143666666Y-60354819D02*
X143666666Y-61069104D01*
X143666666Y-61069104D02*
X143619047Y-61211961D01*
X143619047Y-61211961D02*
X143523809Y-61307200D01*
X143523809Y-61307200D02*
X143380952Y-61354819D01*
X143380952Y-61354819D02*
X143285714Y-61354819D01*
X144047619Y-60354819D02*
X144666666Y-60354819D01*
X144666666Y-60354819D02*
X144333333Y-60735771D01*
X144333333Y-60735771D02*
X144476190Y-60735771D01*
X144476190Y-60735771D02*
X144571428Y-60783390D01*
X144571428Y-60783390D02*
X144619047Y-60831009D01*
X144619047Y-60831009D02*
X144666666Y-60926247D01*
X144666666Y-60926247D02*
X144666666Y-61164342D01*
X144666666Y-61164342D02*
X144619047Y-61259580D01*
X144619047Y-61259580D02*
X144571428Y-61307200D01*
X144571428Y-61307200D02*
X144476190Y-61354819D01*
X144476190Y-61354819D02*
X144190476Y-61354819D01*
X144190476Y-61354819D02*
X144095238Y-61307200D01*
X144095238Y-61307200D02*
X144047619Y-61259580D01*
X144491905Y-70914819D02*
X144491905Y-69914819D01*
X144491905Y-69914819D02*
X144730000Y-69914819D01*
X144730000Y-69914819D02*
X144872857Y-69962438D01*
X144872857Y-69962438D02*
X144968095Y-70057676D01*
X144968095Y-70057676D02*
X145015714Y-70152914D01*
X145015714Y-70152914D02*
X145063333Y-70343390D01*
X145063333Y-70343390D02*
X145063333Y-70486247D01*
X145063333Y-70486247D02*
X145015714Y-70676723D01*
X145015714Y-70676723D02*
X144968095Y-70771961D01*
X144968095Y-70771961D02*
X144872857Y-70867200D01*
X144872857Y-70867200D02*
X144730000Y-70914819D01*
X144730000Y-70914819D02*
X144491905Y-70914819D01*
X145444286Y-70010057D02*
X145491905Y-69962438D01*
X145491905Y-69962438D02*
X145587143Y-69914819D01*
X145587143Y-69914819D02*
X145825238Y-69914819D01*
X145825238Y-69914819D02*
X145920476Y-69962438D01*
X145920476Y-69962438D02*
X145968095Y-70010057D01*
X145968095Y-70010057D02*
X146015714Y-70105295D01*
X146015714Y-70105295D02*
X146015714Y-70200533D01*
X146015714Y-70200533D02*
X145968095Y-70343390D01*
X145968095Y-70343390D02*
X145396667Y-70914819D01*
X145396667Y-70914819D02*
X146015714Y-70914819D01*
X160491905Y-68494819D02*
X160491905Y-67494819D01*
X160491905Y-67494819D02*
X160730000Y-67494819D01*
X160730000Y-67494819D02*
X160872857Y-67542438D01*
X160872857Y-67542438D02*
X160968095Y-67637676D01*
X160968095Y-67637676D02*
X161015714Y-67732914D01*
X161015714Y-67732914D02*
X161063333Y-67923390D01*
X161063333Y-67923390D02*
X161063333Y-68066247D01*
X161063333Y-68066247D02*
X161015714Y-68256723D01*
X161015714Y-68256723D02*
X160968095Y-68351961D01*
X160968095Y-68351961D02*
X160872857Y-68447200D01*
X160872857Y-68447200D02*
X160730000Y-68494819D01*
X160730000Y-68494819D02*
X160491905Y-68494819D01*
X161396667Y-67494819D02*
X162015714Y-67494819D01*
X162015714Y-67494819D02*
X161682381Y-67875771D01*
X161682381Y-67875771D02*
X161825238Y-67875771D01*
X161825238Y-67875771D02*
X161920476Y-67923390D01*
X161920476Y-67923390D02*
X161968095Y-67971009D01*
X161968095Y-67971009D02*
X162015714Y-68066247D01*
X162015714Y-68066247D02*
X162015714Y-68304342D01*
X162015714Y-68304342D02*
X161968095Y-68399580D01*
X161968095Y-68399580D02*
X161920476Y-68447200D01*
X161920476Y-68447200D02*
X161825238Y-68494819D01*
X161825238Y-68494819D02*
X161539524Y-68494819D01*
X161539524Y-68494819D02*
X161444286Y-68447200D01*
X161444286Y-68447200D02*
X161396667Y-68399580D01*
X116454819Y-85333333D02*
X117169104Y-85333333D01*
X117169104Y-85333333D02*
X117311961Y-85380952D01*
X117311961Y-85380952D02*
X117407200Y-85476190D01*
X117407200Y-85476190D02*
X117454819Y-85619047D01*
X117454819Y-85619047D02*
X117454819Y-85714285D01*
X116883390Y-84714285D02*
X116835771Y-84809523D01*
X116835771Y-84809523D02*
X116788152Y-84857142D01*
X116788152Y-84857142D02*
X116692914Y-84904761D01*
X116692914Y-84904761D02*
X116645295Y-84904761D01*
X116645295Y-84904761D02*
X116550057Y-84857142D01*
X116550057Y-84857142D02*
X116502438Y-84809523D01*
X116502438Y-84809523D02*
X116454819Y-84714285D01*
X116454819Y-84714285D02*
X116454819Y-84523809D01*
X116454819Y-84523809D02*
X116502438Y-84428571D01*
X116502438Y-84428571D02*
X116550057Y-84380952D01*
X116550057Y-84380952D02*
X116645295Y-84333333D01*
X116645295Y-84333333D02*
X116692914Y-84333333D01*
X116692914Y-84333333D02*
X116788152Y-84380952D01*
X116788152Y-84380952D02*
X116835771Y-84428571D01*
X116835771Y-84428571D02*
X116883390Y-84523809D01*
X116883390Y-84523809D02*
X116883390Y-84714285D01*
X116883390Y-84714285D02*
X116931009Y-84809523D01*
X116931009Y-84809523D02*
X116978628Y-84857142D01*
X116978628Y-84857142D02*
X117073866Y-84904761D01*
X117073866Y-84904761D02*
X117264342Y-84904761D01*
X117264342Y-84904761D02*
X117359580Y-84857142D01*
X117359580Y-84857142D02*
X117407200Y-84809523D01*
X117407200Y-84809523D02*
X117454819Y-84714285D01*
X117454819Y-84714285D02*
X117454819Y-84523809D01*
X117454819Y-84523809D02*
X117407200Y-84428571D01*
X117407200Y-84428571D02*
X117359580Y-84380952D01*
X117359580Y-84380952D02*
X117264342Y-84333333D01*
X117264342Y-84333333D02*
X117073866Y-84333333D01*
X117073866Y-84333333D02*
X116978628Y-84380952D01*
X116978628Y-84380952D02*
X116931009Y-84428571D01*
X116931009Y-84428571D02*
X116883390Y-84523809D01*
X180666666Y-70004819D02*
X180333333Y-69528628D01*
X180095238Y-70004819D02*
X180095238Y-69004819D01*
X180095238Y-69004819D02*
X180476190Y-69004819D01*
X180476190Y-69004819D02*
X180571428Y-69052438D01*
X180571428Y-69052438D02*
X180619047Y-69100057D01*
X180619047Y-69100057D02*
X180666666Y-69195295D01*
X180666666Y-69195295D02*
X180666666Y-69338152D01*
X180666666Y-69338152D02*
X180619047Y-69433390D01*
X180619047Y-69433390D02*
X180571428Y-69481009D01*
X180571428Y-69481009D02*
X180476190Y-69528628D01*
X180476190Y-69528628D02*
X180095238Y-69528628D01*
X181095238Y-69481009D02*
X181428571Y-69481009D01*
X181571428Y-70004819D02*
X181095238Y-70004819D01*
X181095238Y-70004819D02*
X181095238Y-69004819D01*
X181095238Y-69004819D02*
X181571428Y-69004819D01*
X182333333Y-69481009D02*
X182000000Y-69481009D01*
X182000000Y-70004819D02*
X182000000Y-69004819D01*
X182000000Y-69004819D02*
X182476190Y-69004819D01*
X183000000Y-69004819D02*
X183000000Y-69242914D01*
X182761905Y-69147676D02*
X183000000Y-69242914D01*
X183000000Y-69242914D02*
X183238095Y-69147676D01*
X182857143Y-69433390D02*
X183000000Y-69242914D01*
X183000000Y-69242914D02*
X183142857Y-69433390D01*
X183761905Y-69004819D02*
X183761905Y-69242914D01*
X183523810Y-69147676D02*
X183761905Y-69242914D01*
X183761905Y-69242914D02*
X184000000Y-69147676D01*
X183619048Y-69433390D02*
X183761905Y-69242914D01*
X183761905Y-69242914D02*
X183904762Y-69433390D01*
X146825714Y-103154819D02*
X146825714Y-102154819D01*
X146825714Y-102154819D02*
X147206666Y-102154819D01*
X147206666Y-102154819D02*
X147301904Y-102202438D01*
X147301904Y-102202438D02*
X147349523Y-102250057D01*
X147349523Y-102250057D02*
X147397142Y-102345295D01*
X147397142Y-102345295D02*
X147397142Y-102488152D01*
X147397142Y-102488152D02*
X147349523Y-102583390D01*
X147349523Y-102583390D02*
X147301904Y-102631009D01*
X147301904Y-102631009D02*
X147206666Y-102678628D01*
X147206666Y-102678628D02*
X146825714Y-102678628D01*
X147778095Y-103107200D02*
X147920952Y-103154819D01*
X147920952Y-103154819D02*
X148159047Y-103154819D01*
X148159047Y-103154819D02*
X148254285Y-103107200D01*
X148254285Y-103107200D02*
X148301904Y-103059580D01*
X148301904Y-103059580D02*
X148349523Y-102964342D01*
X148349523Y-102964342D02*
X148349523Y-102869104D01*
X148349523Y-102869104D02*
X148301904Y-102773866D01*
X148301904Y-102773866D02*
X148254285Y-102726247D01*
X148254285Y-102726247D02*
X148159047Y-102678628D01*
X148159047Y-102678628D02*
X147968571Y-102631009D01*
X147968571Y-102631009D02*
X147873333Y-102583390D01*
X147873333Y-102583390D02*
X147825714Y-102535771D01*
X147825714Y-102535771D02*
X147778095Y-102440533D01*
X147778095Y-102440533D02*
X147778095Y-102345295D01*
X147778095Y-102345295D02*
X147825714Y-102250057D01*
X147825714Y-102250057D02*
X147873333Y-102202438D01*
X147873333Y-102202438D02*
X147968571Y-102154819D01*
X147968571Y-102154819D02*
X148206666Y-102154819D01*
X148206666Y-102154819D02*
X148349523Y-102202438D01*
X149301904Y-103154819D02*
X148730476Y-103154819D01*
X149016190Y-103154819D02*
X149016190Y-102154819D01*
X149016190Y-102154819D02*
X148920952Y-102297676D01*
X148920952Y-102297676D02*
X148825714Y-102392914D01*
X148825714Y-102392914D02*
X148730476Y-102440533D01*
X184450057Y-100595238D02*
X184402438Y-100690476D01*
X184402438Y-100690476D02*
X184307200Y-100785714D01*
X184307200Y-100785714D02*
X184164342Y-100928571D01*
X184164342Y-100928571D02*
X184116723Y-101023809D01*
X184116723Y-101023809D02*
X184116723Y-101119047D01*
X184354819Y-101071428D02*
X184307200Y-101166666D01*
X184307200Y-101166666D02*
X184211961Y-101261904D01*
X184211961Y-101261904D02*
X184021485Y-101309523D01*
X184021485Y-101309523D02*
X183688152Y-101309523D01*
X183688152Y-101309523D02*
X183497676Y-101261904D01*
X183497676Y-101261904D02*
X183402438Y-101166666D01*
X183402438Y-101166666D02*
X183354819Y-101071428D01*
X183354819Y-101071428D02*
X183354819Y-100880952D01*
X183354819Y-100880952D02*
X183402438Y-100785714D01*
X183402438Y-100785714D02*
X183497676Y-100690476D01*
X183497676Y-100690476D02*
X183688152Y-100642857D01*
X183688152Y-100642857D02*
X184021485Y-100642857D01*
X184021485Y-100642857D02*
X184211961Y-100690476D01*
X184211961Y-100690476D02*
X184307200Y-100785714D01*
X184307200Y-100785714D02*
X184354819Y-100880952D01*
X184354819Y-100880952D02*
X184354819Y-101071428D01*
X184354819Y-99690476D02*
X184354819Y-100261904D01*
X184354819Y-99976190D02*
X183354819Y-99976190D01*
X183354819Y-99976190D02*
X183497676Y-100071428D01*
X183497676Y-100071428D02*
X183592914Y-100166666D01*
X183592914Y-100166666D02*
X183640533Y-100261904D01*
X116454819Y-74333333D02*
X117169104Y-74333333D01*
X117169104Y-74333333D02*
X117311961Y-74380952D01*
X117311961Y-74380952D02*
X117407200Y-74476190D01*
X117407200Y-74476190D02*
X117454819Y-74619047D01*
X117454819Y-74619047D02*
X117454819Y-74714285D01*
X116454819Y-73952380D02*
X116454819Y-73285714D01*
X116454819Y-73285714D02*
X117454819Y-73714285D01*
X135666666Y-69004819D02*
X135333333Y-68528628D01*
X135095238Y-69004819D02*
X135095238Y-68004819D01*
X135095238Y-68004819D02*
X135476190Y-68004819D01*
X135476190Y-68004819D02*
X135571428Y-68052438D01*
X135571428Y-68052438D02*
X135619047Y-68100057D01*
X135619047Y-68100057D02*
X135666666Y-68195295D01*
X135666666Y-68195295D02*
X135666666Y-68338152D01*
X135666666Y-68338152D02*
X135619047Y-68433390D01*
X135619047Y-68433390D02*
X135571428Y-68481009D01*
X135571428Y-68481009D02*
X135476190Y-68528628D01*
X135476190Y-68528628D02*
X135095238Y-68528628D01*
X136095238Y-68481009D02*
X136428571Y-68481009D01*
X136571428Y-69004819D02*
X136095238Y-69004819D01*
X136095238Y-69004819D02*
X136095238Y-68004819D01*
X136095238Y-68004819D02*
X136571428Y-68004819D01*
X137333333Y-68481009D02*
X137000000Y-68481009D01*
X137000000Y-69004819D02*
X137000000Y-68004819D01*
X137000000Y-68004819D02*
X137476190Y-68004819D01*
X138000000Y-68004819D02*
X138000000Y-68242914D01*
X137761905Y-68147676D02*
X138000000Y-68242914D01*
X138000000Y-68242914D02*
X138238095Y-68147676D01*
X137857143Y-68433390D02*
X138000000Y-68242914D01*
X138000000Y-68242914D02*
X138142857Y-68433390D01*
X138761905Y-68004819D02*
X138761905Y-68242914D01*
X138523810Y-68147676D02*
X138761905Y-68242914D01*
X138761905Y-68242914D02*
X139000000Y-68147676D01*
X138619048Y-68433390D02*
X138761905Y-68242914D01*
X138761905Y-68242914D02*
X138904762Y-68433390D01*
X186666666Y-55994819D02*
X186666666Y-56709104D01*
X186666666Y-56709104D02*
X186619047Y-56851961D01*
X186619047Y-56851961D02*
X186523809Y-56947200D01*
X186523809Y-56947200D02*
X186380952Y-56994819D01*
X186380952Y-56994819D02*
X186285714Y-56994819D01*
X187571428Y-55994819D02*
X187380952Y-55994819D01*
X187380952Y-55994819D02*
X187285714Y-56042438D01*
X187285714Y-56042438D02*
X187238095Y-56090057D01*
X187238095Y-56090057D02*
X187142857Y-56232914D01*
X187142857Y-56232914D02*
X187095238Y-56423390D01*
X187095238Y-56423390D02*
X187095238Y-56804342D01*
X187095238Y-56804342D02*
X187142857Y-56899580D01*
X187142857Y-56899580D02*
X187190476Y-56947200D01*
X187190476Y-56947200D02*
X187285714Y-56994819D01*
X187285714Y-56994819D02*
X187476190Y-56994819D01*
X187476190Y-56994819D02*
X187571428Y-56947200D01*
X187571428Y-56947200D02*
X187619047Y-56899580D01*
X187619047Y-56899580D02*
X187666666Y-56804342D01*
X187666666Y-56804342D02*
X187666666Y-56566247D01*
X187666666Y-56566247D02*
X187619047Y-56471009D01*
X187619047Y-56471009D02*
X187571428Y-56423390D01*
X187571428Y-56423390D02*
X187476190Y-56375771D01*
X187476190Y-56375771D02*
X187285714Y-56375771D01*
X187285714Y-56375771D02*
X187190476Y-56423390D01*
X187190476Y-56423390D02*
X187142857Y-56471009D01*
X187142857Y-56471009D02*
X187095238Y-56566247D01*
X174166666Y-60354819D02*
X174166666Y-61069104D01*
X174166666Y-61069104D02*
X174119047Y-61211961D01*
X174119047Y-61211961D02*
X174023809Y-61307200D01*
X174023809Y-61307200D02*
X173880952Y-61354819D01*
X173880952Y-61354819D02*
X173785714Y-61354819D01*
X174595238Y-60450057D02*
X174642857Y-60402438D01*
X174642857Y-60402438D02*
X174738095Y-60354819D01*
X174738095Y-60354819D02*
X174976190Y-60354819D01*
X174976190Y-60354819D02*
X175071428Y-60402438D01*
X175071428Y-60402438D02*
X175119047Y-60450057D01*
X175119047Y-60450057D02*
X175166666Y-60545295D01*
X175166666Y-60545295D02*
X175166666Y-60640533D01*
X175166666Y-60640533D02*
X175119047Y-60783390D01*
X175119047Y-60783390D02*
X174547619Y-61354819D01*
X174547619Y-61354819D02*
X175166666Y-61354819D01*
X169743095Y-69084819D02*
X169743095Y-69894342D01*
X169743095Y-69894342D02*
X169790714Y-69989580D01*
X169790714Y-69989580D02*
X169838333Y-70037200D01*
X169838333Y-70037200D02*
X169933571Y-70084819D01*
X169933571Y-70084819D02*
X170124047Y-70084819D01*
X170124047Y-70084819D02*
X170219285Y-70037200D01*
X170219285Y-70037200D02*
X170266904Y-69989580D01*
X170266904Y-69989580D02*
X170314523Y-69894342D01*
X170314523Y-69894342D02*
X170314523Y-69084819D01*
X171314523Y-70084819D02*
X170743095Y-70084819D01*
X171028809Y-70084819D02*
X171028809Y-69084819D01*
X171028809Y-69084819D02*
X170933571Y-69227676D01*
X170933571Y-69227676D02*
X170838333Y-69322914D01*
X170838333Y-69322914D02*
X170743095Y-69370533D01*
X148384819Y-63754166D02*
X147908628Y-64087499D01*
X148384819Y-64325594D02*
X147384819Y-64325594D01*
X147384819Y-64325594D02*
X147384819Y-63944642D01*
X147384819Y-63944642D02*
X147432438Y-63849404D01*
X147432438Y-63849404D02*
X147480057Y-63801785D01*
X147480057Y-63801785D02*
X147575295Y-63754166D01*
X147575295Y-63754166D02*
X147718152Y-63754166D01*
X147718152Y-63754166D02*
X147813390Y-63801785D01*
X147813390Y-63801785D02*
X147861009Y-63849404D01*
X147861009Y-63849404D02*
X147908628Y-63944642D01*
X147908628Y-63944642D02*
X147908628Y-64325594D01*
X147384819Y-62849404D02*
X147384819Y-63325594D01*
X147384819Y-63325594D02*
X147861009Y-63373213D01*
X147861009Y-63373213D02*
X147813390Y-63325594D01*
X147813390Y-63325594D02*
X147765771Y-63230356D01*
X147765771Y-63230356D02*
X147765771Y-62992261D01*
X147765771Y-62992261D02*
X147813390Y-62897023D01*
X147813390Y-62897023D02*
X147861009Y-62849404D01*
X147861009Y-62849404D02*
X147956247Y-62801785D01*
X147956247Y-62801785D02*
X148194342Y-62801785D01*
X148194342Y-62801785D02*
X148289580Y-62849404D01*
X148289580Y-62849404D02*
X148337200Y-62897023D01*
X148337200Y-62897023D02*
X148384819Y-62992261D01*
X148384819Y-62992261D02*
X148384819Y-63230356D01*
X148384819Y-63230356D02*
X148337200Y-63325594D01*
X148337200Y-63325594D02*
X148289580Y-63373213D01*
X116494819Y-96833333D02*
X117209104Y-96833333D01*
X117209104Y-96833333D02*
X117351961Y-96880952D01*
X117351961Y-96880952D02*
X117447200Y-96976190D01*
X117447200Y-96976190D02*
X117494819Y-97119047D01*
X117494819Y-97119047D02*
X117494819Y-97214285D01*
X117494819Y-96309523D02*
X117494819Y-96119047D01*
X117494819Y-96119047D02*
X117447200Y-96023809D01*
X117447200Y-96023809D02*
X117399580Y-95976190D01*
X117399580Y-95976190D02*
X117256723Y-95880952D01*
X117256723Y-95880952D02*
X117066247Y-95833333D01*
X117066247Y-95833333D02*
X116685295Y-95833333D01*
X116685295Y-95833333D02*
X116590057Y-95880952D01*
X116590057Y-95880952D02*
X116542438Y-95928571D01*
X116542438Y-95928571D02*
X116494819Y-96023809D01*
X116494819Y-96023809D02*
X116494819Y-96214285D01*
X116494819Y-96214285D02*
X116542438Y-96309523D01*
X116542438Y-96309523D02*
X116590057Y-96357142D01*
X116590057Y-96357142D02*
X116685295Y-96404761D01*
X116685295Y-96404761D02*
X116923390Y-96404761D01*
X116923390Y-96404761D02*
X117018628Y-96357142D01*
X117018628Y-96357142D02*
X117066247Y-96309523D01*
X117066247Y-96309523D02*
X117113866Y-96214285D01*
X117113866Y-96214285D02*
X117113866Y-96023809D01*
X117113866Y-96023809D02*
X117066247Y-95928571D01*
X117066247Y-95928571D02*
X117018628Y-95880952D01*
X117018628Y-95880952D02*
X116923390Y-95833333D01*
X173158095Y-60584819D02*
X173158095Y-61394342D01*
X173158095Y-61394342D02*
X173205714Y-61489580D01*
X173205714Y-61489580D02*
X173253333Y-61537200D01*
X173253333Y-61537200D02*
X173348571Y-61584819D01*
X173348571Y-61584819D02*
X173539047Y-61584819D01*
X173539047Y-61584819D02*
X173634285Y-61537200D01*
X173634285Y-61537200D02*
X173681904Y-61489580D01*
X173681904Y-61489580D02*
X173729523Y-61394342D01*
X173729523Y-61394342D02*
X173729523Y-60584819D01*
X174158095Y-60680057D02*
X174205714Y-60632438D01*
X174205714Y-60632438D02*
X174300952Y-60584819D01*
X174300952Y-60584819D02*
X174539047Y-60584819D01*
X174539047Y-60584819D02*
X174634285Y-60632438D01*
X174634285Y-60632438D02*
X174681904Y-60680057D01*
X174681904Y-60680057D02*
X174729523Y-60775295D01*
X174729523Y-60775295D02*
X174729523Y-60870533D01*
X174729523Y-60870533D02*
X174681904Y-61013390D01*
X174681904Y-61013390D02*
X174110476Y-61584819D01*
X174110476Y-61584819D02*
X174729523Y-61584819D01*
D11*
%TO.C,J4*%
X191475000Y-78562500D02*
X191696000Y-78562500D01*
X191475000Y-80500000D02*
X191475000Y-78562500D01*
X192595000Y-80500000D02*
X191475000Y-80500000D01*
X192595000Y-81736500D02*
X192595000Y-80500000D01*
X193405000Y-80500000D02*
X193405000Y-79263500D01*
X193405000Y-80500000D02*
X194525000Y-80500000D01*
X194525000Y-80500000D02*
X194525000Y-82437500D01*
X194525000Y-82437500D02*
X194304000Y-82437500D01*
D12*
%TO.C,D4*%
X162170000Y-61764000D02*
X162170000Y-61920000D01*
X162170000Y-64080000D02*
X162170000Y-64236000D01*
X162170000Y-61764484D02*
G75*
G02*
X165401437Y-61920000I1560000J-1235516D01*
G01*
X162689039Y-61920000D02*
G75*
G02*
X164770961Y-61920000I1040961J-1080000D01*
G01*
X164770961Y-64080000D02*
G75*
G02*
X162689039Y-64080000I-1040961J1080000D01*
G01*
X165401437Y-64080000D02*
G75*
G02*
X162170000Y-64235516I-1671437J1080000D01*
G01*
%TO.C,F1*%
X118590000Y-96610000D02*
X118590000Y-73890000D01*
X121750000Y-73890000D02*
X118590000Y-73890000D01*
X121750000Y-96610000D02*
X118590000Y-96610000D01*
X128410000Y-73890000D02*
X125250000Y-73890000D01*
X128410000Y-96610000D02*
X125250000Y-96610000D01*
X128410000Y-96610000D02*
X128410000Y-73890000D01*
%TO.C,J1*%
X149940000Y-55090000D02*
X149940000Y-59810000D01*
X149940000Y-57200000D02*
X150550000Y-57200000D01*
X149940000Y-58500000D02*
X150550000Y-58500000D01*
X149940000Y-59810000D02*
X168060000Y-59810000D01*
X150550000Y-55700000D02*
X150550000Y-59200000D01*
X150550000Y-59200000D02*
X152500000Y-59200000D01*
X152500000Y-59200000D02*
X152500000Y-59810000D01*
X152900000Y-56200000D02*
X152900000Y-55700000D01*
X153000000Y-55700000D02*
X153000000Y-56200000D01*
X153100000Y-55700000D02*
X153100000Y-56200000D01*
X153100000Y-56200000D02*
X152900000Y-56200000D01*
X154900000Y-56200000D02*
X154900000Y-55700000D01*
X155000000Y-55700000D02*
X155000000Y-56200000D01*
X155100000Y-55700000D02*
X155100000Y-56200000D01*
X155100000Y-56200000D02*
X154900000Y-56200000D01*
X156900000Y-56200000D02*
X156900000Y-55700000D01*
X157000000Y-55700000D02*
X157000000Y-56200000D01*
X157100000Y-55700000D02*
X157100000Y-56200000D01*
X157100000Y-56200000D02*
X156900000Y-56200000D01*
X158900000Y-56200000D02*
X158900000Y-55700000D01*
X159000000Y-55700000D02*
X159000000Y-56200000D01*
X159100000Y-55700000D02*
X159100000Y-56200000D01*
X159100000Y-56200000D02*
X158900000Y-56200000D01*
X160900000Y-56200000D02*
X160900000Y-55700000D01*
X161000000Y-55700000D02*
X161000000Y-56200000D01*
X161100000Y-55700000D02*
X161100000Y-56200000D01*
X161100000Y-56200000D02*
X160900000Y-56200000D01*
X162900000Y-56200000D02*
X162900000Y-55700000D01*
X163000000Y-55700000D02*
X163000000Y-56200000D01*
X163100000Y-55700000D02*
X163100000Y-56200000D01*
X163100000Y-56200000D02*
X162900000Y-56200000D01*
X164900000Y-56200000D02*
X164900000Y-55700000D01*
X165000000Y-55700000D02*
X165000000Y-56200000D01*
X165100000Y-55700000D02*
X165100000Y-56200000D01*
X165100000Y-56200000D02*
X164900000Y-56200000D01*
X165500000Y-59200000D02*
X167450000Y-59200000D01*
X165500000Y-59810000D02*
X165500000Y-59200000D01*
X166300000Y-59810000D02*
X166300000Y-60010000D01*
X166300000Y-59910000D02*
X166600000Y-59910000D01*
X166300000Y-60010000D02*
X166600000Y-60010000D01*
X166600000Y-60010000D02*
X166600000Y-59810000D01*
X167110000Y-60110000D02*
X168360000Y-60110000D01*
X167450000Y-55700000D02*
X150550000Y-55700000D01*
X167450000Y-59200000D02*
X167450000Y-55700000D01*
X168060000Y-55090000D02*
X149940000Y-55090000D01*
X168060000Y-57200000D02*
X167450000Y-57200000D01*
X168060000Y-58500000D02*
X167450000Y-58500000D01*
X168060000Y-59810000D02*
X168060000Y-55090000D01*
X168360000Y-60110000D02*
X168360000Y-58860000D01*
D11*
%TO.C,J5*%
X191475000Y-66062500D02*
X191696000Y-66062500D01*
X191475000Y-68000000D02*
X191475000Y-66062500D01*
X192595000Y-68000000D02*
X191475000Y-68000000D01*
X192595000Y-69236500D02*
X192595000Y-68000000D01*
X193405000Y-68000000D02*
X193405000Y-66763500D01*
X193405000Y-68000000D02*
X194525000Y-68000000D01*
X194525000Y-68000000D02*
X194525000Y-69937500D01*
X194525000Y-69937500D02*
X194304000Y-69937500D01*
D12*
%TO.C,R4*%
X186977500Y-92832776D02*
X186977500Y-93342224D01*
X188022500Y-92832776D02*
X188022500Y-93342224D01*
%TO.C,J3*%
X139940000Y-57200000D02*
X140550000Y-57200000D01*
X139940000Y-58500000D02*
X140550000Y-58500000D01*
X140550000Y-55700000D02*
X140550000Y-59200000D01*
X140550000Y-59200000D02*
X142500000Y-59200000D01*
X142500000Y-59200000D02*
X142500000Y-59810000D01*
X142900000Y-56200000D02*
X142900000Y-55700000D01*
X143000000Y-55700000D02*
X143000000Y-56200000D01*
X143100000Y-55700000D02*
X143100000Y-56200000D01*
X143100000Y-56200000D02*
X142900000Y-56200000D01*
X144900000Y-56200000D02*
X144900000Y-55700000D01*
X145000000Y-55700000D02*
X145000000Y-56200000D01*
X145100000Y-55700000D02*
X145100000Y-56200000D01*
X145100000Y-56200000D02*
X144900000Y-56200000D01*
X145500000Y-59200000D02*
X147450000Y-59200000D01*
X145500000Y-59810000D02*
X145500000Y-59200000D01*
X146300000Y-59810000D02*
X146300000Y-60010000D01*
X146300000Y-59910000D02*
X146600000Y-59910000D01*
X146300000Y-60010000D02*
X146600000Y-60010000D01*
X146600000Y-60010000D02*
X146600000Y-59810000D01*
X147110000Y-60110000D02*
X148360000Y-60110000D01*
X147450000Y-55700000D02*
X140550000Y-55700000D01*
X147450000Y-59200000D02*
X147450000Y-55700000D01*
X148060000Y-57200000D02*
X147450000Y-57200000D01*
X148060000Y-58500000D02*
X147450000Y-58500000D01*
X148360000Y-60110000D02*
X148360000Y-58860000D01*
X148060000Y-59810000D02*
X139940000Y-59810000D01*
X139940000Y-55090000D01*
X148060000Y-55090000D01*
X148060000Y-59810000D01*
%TO.C,D2*%
X146790000Y-66420000D02*
X146790000Y-66264000D01*
X146790000Y-68736000D02*
X146790000Y-68580000D01*
X143558563Y-66420000D02*
G75*
G02*
X146790000Y-66264484I1671437J-1080000D01*
G01*
X144189039Y-66420000D02*
G75*
G02*
X146270961Y-66420000I1040961J-1080000D01*
G01*
X146270961Y-68580000D02*
G75*
G02*
X144189039Y-68580000I-1040961J1080000D01*
G01*
X146790000Y-68735516D02*
G75*
G02*
X143558563Y-68580000I-1560000J1235516D01*
G01*
%TO.C,D3*%
X159670000Y-69764000D02*
X159670000Y-69920000D01*
X159670000Y-72080000D02*
X159670000Y-72236000D01*
X159670000Y-69764484D02*
G75*
G02*
X162901437Y-69920000I1560000J-1235516D01*
G01*
X160189039Y-69920000D02*
G75*
G02*
X162270961Y-69920000I1040961J-1080000D01*
G01*
X162270961Y-72080000D02*
G75*
G02*
X160189039Y-72080000I-1040961J1080000D01*
G01*
X162901437Y-72080000D02*
G75*
G02*
X159670000Y-72235516I-1671437J1080000D01*
G01*
D11*
%TO.C,J8*%
X112975000Y-83062500D02*
X113196000Y-83062500D01*
X112975000Y-85000000D02*
X112975000Y-83062500D01*
X114095000Y-85000000D02*
X112975000Y-85000000D01*
X114095000Y-86236500D02*
X114095000Y-85000000D01*
X114905000Y-85000000D02*
X114905000Y-83763500D01*
X114905000Y-85000000D02*
X116025000Y-85000000D01*
X116025000Y-85000000D02*
X116025000Y-86937500D01*
X116025000Y-86937500D02*
X115804000Y-86937500D01*
D12*
%TO.C,PS1*%
X129530000Y-79140000D02*
X166550000Y-79140000D01*
X129530000Y-101860000D02*
X129530000Y-79140000D01*
X166550000Y-79140000D02*
X166550000Y-92704000D01*
X166550000Y-93296000D02*
X166550000Y-101860000D01*
X166550000Y-101860000D02*
X129530000Y-101860000D01*
X167160000Y-93440000D02*
X166550000Y-93000000D01*
X167160000Y-92560000D01*
X167160000Y-93440000D01*
G36*
X167160000Y-93440000D02*
G01*
X166550000Y-93000000D01*
X167160000Y-92560000D01*
X167160000Y-93440000D01*
G37*
%TO.C,Q1*%
X184740000Y-95390000D02*
X189360000Y-95390000D01*
X184740000Y-98650000D02*
X186120000Y-98650000D01*
X184740000Y-102350000D02*
X186120000Y-102350000D01*
X184740000Y-105610000D02*
X184740000Y-95390000D01*
X186120000Y-105610000D02*
X186120000Y-95390000D01*
X189360000Y-95390000D02*
X189360000Y-105610000D01*
X189360000Y-105610000D02*
X184740000Y-105610000D01*
D11*
%TO.C,J7*%
X112975000Y-72062500D02*
X113196000Y-72062500D01*
X112975000Y-74000000D02*
X112975000Y-72062500D01*
X114095000Y-74000000D02*
X112975000Y-74000000D01*
X114095000Y-75236500D02*
X114095000Y-74000000D01*
X114905000Y-74000000D02*
X114905000Y-72763500D01*
X114905000Y-74000000D02*
X116025000Y-74000000D01*
X116025000Y-74000000D02*
X116025000Y-75937500D01*
X116025000Y-75937500D02*
X115804000Y-75937500D01*
%TO.C,J6*%
X185062500Y-55525000D02*
X185062500Y-55304000D01*
X187000000Y-52475000D02*
X188937500Y-52475000D01*
X187000000Y-53595000D02*
X185763500Y-53595000D01*
X187000000Y-53595000D02*
X187000000Y-52475000D01*
X187000000Y-54405000D02*
X187000000Y-55525000D01*
X187000000Y-55525000D02*
X185062500Y-55525000D01*
X188236500Y-54405000D02*
X187000000Y-54405000D01*
X188937500Y-52475000D02*
X188937500Y-52696000D01*
D12*
%TO.C,J2*%
X170440000Y-55090000D02*
X170440000Y-59810000D01*
X170440000Y-57200000D02*
X171050000Y-57200000D01*
X170440000Y-58500000D02*
X171050000Y-58500000D01*
X170440000Y-59810000D02*
X178560000Y-59810000D01*
X171050000Y-55700000D02*
X171050000Y-59200000D01*
X171050000Y-59200000D02*
X173000000Y-59200000D01*
X173000000Y-59200000D02*
X173000000Y-59810000D01*
X173400000Y-56200000D02*
X173400000Y-55700000D01*
X173500000Y-55700000D02*
X173500000Y-56200000D01*
X173600000Y-55700000D02*
X173600000Y-56200000D01*
X173600000Y-56200000D02*
X173400000Y-56200000D01*
X175400000Y-56200000D02*
X175400000Y-55700000D01*
X175500000Y-55700000D02*
X175500000Y-56200000D01*
X175600000Y-55700000D02*
X175600000Y-56200000D01*
X175600000Y-56200000D02*
X175400000Y-56200000D01*
X176000000Y-59200000D02*
X177950000Y-59200000D01*
X176000000Y-59810000D02*
X176000000Y-59200000D01*
X176800000Y-59810000D02*
X176800000Y-60010000D01*
X176800000Y-59910000D02*
X177100000Y-59910000D01*
X176800000Y-60010000D02*
X177100000Y-60010000D01*
X177100000Y-60010000D02*
X177100000Y-59810000D01*
X177610000Y-60110000D02*
X178860000Y-60110000D01*
X177950000Y-55700000D02*
X171050000Y-55700000D01*
X177950000Y-59200000D02*
X177950000Y-55700000D01*
X178560000Y-55090000D02*
X170440000Y-55090000D01*
X178560000Y-57200000D02*
X177950000Y-57200000D01*
X178560000Y-58500000D02*
X177950000Y-58500000D01*
X178560000Y-59810000D02*
X178560000Y-55090000D01*
X178860000Y-60110000D02*
X178860000Y-58860000D01*
%TO.C,U1*%
X167270000Y-70630000D02*
X167270000Y-78370000D01*
X167270000Y-78370000D02*
X173740000Y-78370000D01*
X169505000Y-70630000D02*
X167270000Y-70630000D01*
X173740000Y-70630000D02*
X171505000Y-70630000D01*
X173740000Y-78370000D02*
X173740000Y-70630000D01*
X171505000Y-70630000D02*
G75*
G02*
X169505000Y-70630000I-1000000J0D01*
G01*
%TO.C,R5*%
X145977500Y-63332776D02*
X145977500Y-63842224D01*
X147022500Y-63332776D02*
X147022500Y-63842224D01*
D11*
%TO.C,J9*%
X112975000Y-94562500D02*
X113196000Y-94562500D01*
X112975000Y-96500000D02*
X112975000Y-94562500D01*
X114095000Y-96500000D02*
X112975000Y-96500000D01*
X114095000Y-96500000D02*
X114095000Y-97736500D01*
X114905000Y-95263500D02*
X114905000Y-96500000D01*
X114905000Y-96500000D02*
X116025000Y-96500000D01*
X116025000Y-96500000D02*
X116025000Y-98437500D01*
X116025000Y-98437500D02*
X115804000Y-98437500D01*
D12*
%TO.C,U2*%
X170685000Y-62130000D02*
X170685000Y-69870000D01*
X170685000Y-69870000D02*
X177155000Y-69870000D01*
X172920000Y-62130000D02*
X170685000Y-62130000D01*
X177155000Y-62130000D02*
X174920000Y-62130000D01*
X177155000Y-69870000D02*
X177155000Y-62130000D01*
X174920000Y-62130000D02*
G75*
G02*
X172920000Y-62130000I-1000000J0D01*
G01*
%TD*%
%LPC*%
D13*
%TO.C,J4*%
X193000000Y-83040000D03*
X193000000Y-77960000D03*
%TD*%
D14*
%TO.C,D4*%
X162460000Y-63000000D03*
D15*
X165000000Y-63000000D03*
%TD*%
D16*
%TO.C,F1*%
X123500000Y-85250000D03*
D17*
X123500000Y-96500000D03*
X123500000Y-74000000D03*
%TD*%
D18*
%TO.C,J1*%
X166000000Y-58000000D03*
D19*
X164000000Y-58000000D03*
X162000000Y-58000000D03*
X160000000Y-58000000D03*
X158000000Y-58000000D03*
X156000000Y-58000000D03*
X154000000Y-58000000D03*
X152000000Y-58000000D03*
%TD*%
D13*
%TO.C,J5*%
X193000000Y-70540000D03*
X193000000Y-65460000D03*
%TD*%
D20*
%TO.C,R4*%
X187500000Y-92175000D03*
X187500000Y-94000000D03*
%TD*%
D18*
%TO.C,J3*%
X146000000Y-58000000D03*
D19*
X144000000Y-58000000D03*
X142000000Y-58000000D03*
%TD*%
D14*
%TO.C,D2*%
X146500000Y-67500000D03*
D15*
X143960000Y-67500000D03*
%TD*%
D14*
%TO.C,D3*%
X159960000Y-71000000D03*
D15*
X162500000Y-71000000D03*
%TD*%
D13*
%TO.C,J8*%
X114500000Y-87540000D03*
X114500000Y-82460000D03*
%TD*%
D21*
%TO.C,REF\u002A\u002A*%
X182000000Y-74500000D03*
%TD*%
D22*
%TO.C,PS1*%
X162580000Y-93000000D03*
D23*
X162580000Y-88000000D03*
X133500000Y-98000000D03*
X133500000Y-83000000D03*
%TD*%
D24*
%TO.C,Q1*%
X188000000Y-103040000D03*
D25*
X188000000Y-100500000D03*
X188000000Y-97960000D03*
%TD*%
D13*
%TO.C,J7*%
X114500000Y-76540000D03*
X114500000Y-71460000D03*
%TD*%
D21*
%TO.C,REF\u002A\u002A*%
X137000000Y-73500000D03*
%TD*%
D13*
%TO.C,J6*%
X189540000Y-54000000D03*
X184460000Y-54000000D03*
%TD*%
D18*
%TO.C,J2*%
X176500000Y-58000000D03*
D19*
X174500000Y-58000000D03*
X172500000Y-58000000D03*
%TD*%
D26*
%TO.C,U1*%
X165425000Y-71960000D03*
D27*
X165425000Y-74500000D03*
X165425000Y-77040000D03*
X175585000Y-77040000D03*
X175585000Y-74500000D03*
X175585000Y-71960000D03*
%TD*%
D20*
%TO.C,R5*%
X146500000Y-62675000D03*
X146500000Y-64500000D03*
%TD*%
D13*
%TO.C,J9*%
X114500000Y-93960000D03*
X114500000Y-99040000D03*
%TD*%
D26*
%TO.C,U2*%
X168840000Y-63460000D03*
D27*
X168840000Y-66000000D03*
X168840000Y-68540000D03*
X179000000Y-68540000D03*
X179000000Y-66000000D03*
X179000000Y-63460000D03*
%TD*%
%LPD*%
M02*
