M48
; DRILL file {KiCad 9.0.7} date 2026-01-20T13:19:58+0100
; FORMAT={-:-/ absolute / metric / decimal}
; #@! TF.CreationDate,2026-01-20T13:19:58+01:00
; #@! TF.GenerationSoftware,Kicad,Pcbnew,9.0.7
; #@! TF.FileFunction,Plated,1,2,PTH
FMAT,2
METRIC
; #@! TA.AperFunction,Plated,PTH,ViaDrill
T1C0.300
; #@! TA.AperFunction,Plated,PTH,ComponentDrill
T2C0.750
; #@! TA.AperFunction,Plated,PTH,ComponentDrill
T3C0.800
; #@! TA.AperFunction,Plated,PTH,ComponentDrill
T4C0.900
; #@! TA.AperFunction,Plated,PTH,ComponentDrill
T5C1.000
; #@! TA.AperFunction,Plated,PTH,ComponentDrill
T6C1.100
; #@! TA.AperFunction,Plated,PTH,ComponentDrill
T7C1.300
; #@! TA.AperFunction,Plated,PTH,ComponentDrill
T8C1.320
%
G90
G05
T1
X142.0Y-56.0
X144.0Y-52.5
X146.5Y-54.0
X154.0Y-56.0
X156.0Y-56.0
X164.0Y-53.0
X166.0Y-54.0
X172.5Y-53.0
X174.5Y-56.0
X191.0Y-102.5
X191.0Y-104.0
X192.5Y-102.5
X192.5Y-104.0
X194.0Y-102.5
X194.0Y-104.0
X195.5Y-102.5
X195.5Y-104.0
T2
X142.0Y-58.0
X144.0Y-58.0
X146.0Y-58.0
X152.0Y-58.0
X154.0Y-58.0
X156.0Y-58.0
X158.0Y-58.0
X160.0Y-58.0
X162.0Y-58.0
X164.0Y-58.0
X166.0Y-58.0
X172.5Y-58.0
X174.5Y-58.0
X176.5Y-58.0
T3
X165.425Y-71.96
X165.425Y-74.5
X165.425Y-77.04
X168.84Y-63.46
X168.84Y-66.0
X168.84Y-68.54
X175.585Y-71.96
X175.585Y-74.5
X175.585Y-77.04
X179.0Y-63.46
X179.0Y-66.0
X179.0Y-68.54
T4
X143.96Y-67.5
X146.5Y-67.5
X159.96Y-71.0
X162.46Y-63.0
X162.5Y-71.0
X165.0Y-63.0
T5
X133.5Y-83.0
X133.5Y-98.0
X162.58Y-88.0
X162.58Y-93.0
T6
X188.0Y-97.96
X188.0Y-100.5
X188.0Y-103.04
T7
X123.5Y-74.0
X123.5Y-96.5
T8
X114.5Y-71.46
X114.5Y-76.54
X114.5Y-82.46
X114.5Y-87.54
X114.5Y-93.96
X114.5Y-99.04
X184.46Y-54.0
X189.54Y-54.0
X193.0Y-65.46
X193.0Y-70.54
X193.0Y-77.96
X193.0Y-83.04
M30
