%TF.GenerationSoftware,KiCad,Pcbnew,9.0.7*%
%TF.CreationDate,2026-01-20T13:18:08+01:00*%
%TF.ProjectId,OpenBrewer,4f70656e-4272-4657-9765-722e6b696361,rev?*%
%TF.SameCoordinates,Original*%
%TF.FileFunction,Soldermask,Top*%
%TF.FilePolarity,Negative*%
%FSLAX46Y46*%
G04 Gerber Fmt 4.6, Leading zero omitted, Abs format (unit mm)*
G04 Created by KiCad (PCBNEW 9.0.7) date 2026-01-20 13:18:08*
%MOMM*%
%LPD*%
G01*
G04 APERTURE LIST*
G04 Aperture macros list*
%AMRoundRect*
0 Rectangle with rounded corners*
0 $1 Rounding radius*
0 $2 $3 $4 $5 $6 $7 $8 $9 X,Y pos of 4 corners*
0 Add a 4 corners polygon primitive as box body*
4,1,4,$2,$3,$4,$5,$6,$7,$8,$9,$2,$3,0*
0 Add four circle primitives for the rounded corners*
1,1,$1+$1,$2,$3*
1,1,$1+$1,$4,$5*
1,1,$1+$1,$6,$7*
1,1,$1+$1,$8,$9*
0 Add four rect primitives between the rounded corners*
20,1,$1+$1,$2,$3,$4,$5,0*
20,1,$1+$1,$4,$5,$6,$7,0*
20,1,$1+$1,$6,$7,$8,$9,0*
20,1,$1+$1,$8,$9,$2,$3,0*%
G04 Aperture macros list end*
%ADD10C,2.184000*%
%ADD11R,1.800000X1.800000*%
%ADD12C,1.800000*%
%ADD13C,2.700000*%
%ADD14C,3.000000*%
%ADD15RoundRect,0.250000X0.350000X0.625000X-0.350000X0.625000X-0.350000X-0.625000X0.350000X-0.625000X0*%
%ADD16O,1.200000X1.750000*%
%ADD17RoundRect,0.237500X-0.237500X0.250000X-0.237500X-0.250000X0.237500X-0.250000X0.237500X0.250000X0*%
%ADD18C,4.000000*%
%ADD19RoundRect,0.250000X0.600000X0.750000X-0.600000X0.750000X-0.600000X-0.750000X0.600000X-0.750000X0*%
%ADD20O,1.700000X2.000000*%
%ADD21R,2.000000X1.905000*%
%ADD22O,2.000000X1.905000*%
%ADD23RoundRect,0.250000X-0.950000X-0.550000X0.950000X-0.550000X0.950000X0.550000X-0.950000X0.550000X0*%
%ADD24O,2.400000X1.600000*%
G04 APERTURE END LIST*
D10*
%TO.C,J4*%
X193000000Y-83040000D03*
X193000000Y-77960000D03*
%TD*%
D11*
%TO.C,D4*%
X162460000Y-63000000D03*
D12*
X165000000Y-63000000D03*
%TD*%
D13*
%TO.C,F1*%
X123500000Y-85250000D03*
D14*
X123500000Y-96500000D03*
X123500000Y-74000000D03*
%TD*%
D15*
%TO.C,J1*%
X166000000Y-58000000D03*
D16*
X164000000Y-58000000D03*
X162000000Y-58000000D03*
X160000000Y-58000000D03*
X158000000Y-58000000D03*
X156000000Y-58000000D03*
X154000000Y-58000000D03*
X152000000Y-58000000D03*
%TD*%
D10*
%TO.C,J5*%
X193000000Y-70540000D03*
X193000000Y-65460000D03*
%TD*%
D17*
%TO.C,R4*%
X187500000Y-92175000D03*
X187500000Y-94000000D03*
%TD*%
D15*
%TO.C,J3*%
X146000000Y-58000000D03*
D16*
X144000000Y-58000000D03*
X142000000Y-58000000D03*
%TD*%
D11*
%TO.C,D2*%
X146500000Y-67500000D03*
D12*
X143960000Y-67500000D03*
%TD*%
D11*
%TO.C,D3*%
X159960000Y-71000000D03*
D12*
X162500000Y-71000000D03*
%TD*%
D10*
%TO.C,J8*%
X114500000Y-87540000D03*
X114500000Y-82460000D03*
%TD*%
D18*
%TO.C,REF\u002A\u002A*%
X182000000Y-74500000D03*
%TD*%
D19*
%TO.C,PS1*%
X162580000Y-93000000D03*
D20*
X162580000Y-88000000D03*
X133500000Y-98000000D03*
X133500000Y-83000000D03*
%TD*%
D21*
%TO.C,Q1*%
X188000000Y-103040000D03*
D22*
X188000000Y-100500000D03*
X188000000Y-97960000D03*
%TD*%
D10*
%TO.C,J7*%
X114500000Y-76540000D03*
X114500000Y-71460000D03*
%TD*%
D18*
%TO.C,REF\u002A\u002A*%
X137000000Y-73500000D03*
%TD*%
D10*
%TO.C,J6*%
X189540000Y-54000000D03*
X184460000Y-54000000D03*
%TD*%
D15*
%TO.C,J2*%
X176500000Y-58000000D03*
D16*
X174500000Y-58000000D03*
X172500000Y-58000000D03*
%TD*%
D23*
%TO.C,U1*%
X165425000Y-71960000D03*
D24*
X165425000Y-74500000D03*
X165425000Y-77040000D03*
X175585000Y-77040000D03*
X175585000Y-74500000D03*
X175585000Y-71960000D03*
%TD*%
D17*
%TO.C,R5*%
X146500000Y-62675000D03*
X146500000Y-64500000D03*
%TD*%
D10*
%TO.C,J9*%
X114500000Y-93960000D03*
X114500000Y-99040000D03*
%TD*%
D23*
%TO.C,U2*%
X168840000Y-63460000D03*
D24*
X168840000Y-66000000D03*
X168840000Y-68540000D03*
X179000000Y-68540000D03*
X179000000Y-66000000D03*
X179000000Y-63460000D03*
%TD*%
M02*
