%TF.GenerationSoftware,KiCad,Pcbnew,9.0.7*%
%TF.CreationDate,2026-01-20T13:18:06+01:00*%
%TF.ProjectId,OpenBrewer,4f70656e-4272-4657-9765-722e6b696361,rev?*%
%TF.SameCoordinates,Original*%
%TF.FileFunction,Copper,L1,Top*%
%TF.FilePolarity,Positive*%
%FSLAX46Y46*%
G04 Gerber Fmt 4.6, Leading zero omitted, Abs format (unit mm)*
G04 Created by KiCad (PCBNEW 9.0.7) date 2026-01-20 13:18:06*
%MOMM*%
%LPD*%
G01*
G04 APERTURE LIST*
G04 Aperture macros list*
%AMRoundRect*
0 Rectangle with rounded corners*
0 $1 Rounding radius*
0 $2 $3 $4 $5 $6 $7 $8 $9 X,Y pos of 4 corners*
0 Add a 4 corners polygon primitive as box body*
4,1,4,$2,$3,$4,$5,$6,$7,$8,$9,$2,$3,0*
0 Add four circle primitives for the rounded corners*
1,1,$1+$1,$2,$3*
1,1,$1+$1,$4,$5*
1,1,$1+$1,$6,$7*
1,1,$1+$1,$8,$9*
0 Add four rect primitives between the rounded corners*
20,1,$1+$1,$2,$3,$4,$5,0*
20,1,$1+$1,$4,$5,$6,$7,0*
20,1,$1+$1,$6,$7,$8,$9,0*
20,1,$1+$1,$8,$9,$2,$3,0*%
G04 Aperture macros list end*
%TA.AperFunction,ComponentPad*%
%ADD10C,1.980000*%
%TD*%
%TA.AperFunction,ComponentPad*%
%ADD11R,1.800000X1.800000*%
%TD*%
%TA.AperFunction,ComponentPad*%
%ADD12C,1.800000*%
%TD*%
%TA.AperFunction,ComponentPad*%
%ADD13C,3.000000*%
%TD*%
%TA.AperFunction,ComponentPad*%
%ADD14RoundRect,0.250000X0.350000X0.625000X-0.350000X0.625000X-0.350000X-0.625000X0.350000X-0.625000X0*%
%TD*%
%TA.AperFunction,ComponentPad*%
%ADD15O,1.200000X1.750000*%
%TD*%
%TA.AperFunction,SMDPad,CuDef*%
%ADD16RoundRect,0.237500X-0.237500X0.250000X-0.237500X-0.250000X0.237500X-0.250000X0.237500X0.250000X0*%
%TD*%
%TA.AperFunction,ComponentPad*%
%ADD17RoundRect,0.250000X0.600000X0.750000X-0.600000X0.750000X-0.600000X-0.750000X0.600000X-0.750000X0*%
%TD*%
%TA.AperFunction,ComponentPad*%
%ADD18O,1.700000X2.000000*%
%TD*%
%TA.AperFunction,ComponentPad*%
%ADD19R,2.000000X1.905000*%
%TD*%
%TA.AperFunction,ComponentPad*%
%ADD20O,2.000000X1.905000*%
%TD*%
%TA.AperFunction,ComponentPad*%
%ADD21RoundRect,0.250000X-0.950000X-0.550000X0.950000X-0.550000X0.950000X0.550000X-0.950000X0.550000X0*%
%TD*%
%TA.AperFunction,ComponentPad*%
%ADD22O,2.400000X1.600000*%
%TD*%
%TA.AperFunction,ViaPad*%
%ADD23C,0.600000*%
%TD*%
%TA.AperFunction,Conductor*%
%ADD24C,0.200000*%
%TD*%
%TA.AperFunction,Conductor*%
%ADD25C,0.400000*%
%TD*%
%TA.AperFunction,Conductor*%
%ADD26C,0.600000*%
%TD*%
%TA.AperFunction,Conductor*%
%ADD27C,0.500000*%
%TD*%
G04 APERTURE END LIST*
D10*
%TO.P,J4,1_1,1_1*%
%TO.N,Net-(PS1-AC{slash}N)*%
X193000000Y-83040000D03*
%TO.P,J4,1_2,1_2*%
X193000000Y-77960000D03*
%TD*%
D11*
%TO.P,D4,1,K*%
%TO.N,GND*%
X162460000Y-63000000D03*
D12*
%TO.P,D4,2,A*%
%TO.N,HEAT*%
X165000000Y-63000000D03*
%TD*%
D13*
%TO.P,F1,1*%
%TO.N,Net-(F1-Pad1)*%
X123500000Y-96500000D03*
%TO.P,F1,2*%
%TO.N,Net-(PS1-AC{slash}L)*%
X123500000Y-74000000D03*
%TD*%
D14*
%TO.P,J1,1,Pin_1*%
%TO.N,GND*%
X166000000Y-58000000D03*
D15*
%TO.P,J1,2,Pin_2*%
%TO.N,5V*%
X164000000Y-58000000D03*
%TO.P,J1,3,Pin_3*%
%TO.N,12V*%
X162000000Y-58000000D03*
%TO.P,J1,4,Pin_4*%
%TO.N,HEAT*%
X160000000Y-58000000D03*
%TO.P,J1,5,Pin_5*%
%TO.N,PUMP*%
X158000000Y-58000000D03*
%TO.P,J1,6,Pin_6*%
%TO.N,FLOW*%
X156000000Y-58000000D03*
%TO.P,J1,7,Pin_7*%
%TO.N,TEMP*%
X154000000Y-58000000D03*
%TO.P,J1,8,Pin_8*%
%TO.N,DEBUG-LED*%
X152000000Y-58000000D03*
%TD*%
D10*
%TO.P,J5,1_1,1_1*%
%TO.N,Net-(Q1-A2)*%
X193000000Y-70540000D03*
%TO.P,J5,1_2,1_2*%
X193000000Y-65460000D03*
%TD*%
D16*
%TO.P,R4,1*%
%TO.N,Net-(R4-Pad1)*%
X187500000Y-92175000D03*
%TO.P,R4,2*%
%TO.N,Net-(Q1-G)*%
X187500000Y-94000000D03*
%TD*%
D14*
%TO.P,J3,1,Pin_1*%
%TO.N,GND*%
X146000000Y-58000000D03*
D15*
%TO.P,J3,2,Pin_2*%
%TO.N,5V*%
X144000000Y-58000000D03*
%TO.P,J3,3,Pin_3*%
%TO.N,TEMP*%
X142000000Y-58000000D03*
%TD*%
D11*
%TO.P,D2,1,K*%
%TO.N,Net-(D2-K)*%
X146500000Y-67500000D03*
D12*
%TO.P,D2,2,A*%
%TO.N,5V*%
X143960000Y-67500000D03*
%TD*%
D11*
%TO.P,D3,1,K*%
%TO.N,GND*%
X159960000Y-71000000D03*
D12*
%TO.P,D3,2,A*%
%TO.N,PUMP*%
X162500000Y-71000000D03*
%TD*%
D10*
%TO.P,J8,1_1,1_1*%
%TO.N,Net-(F1-Pad1)*%
X114500000Y-87540000D03*
%TO.P,J8,1_2,1_2*%
X114500000Y-82460000D03*
%TD*%
D17*
%TO.P,PS1,1,AC/L*%
%TO.N,Net-(PS1-AC{slash}L)*%
X162580000Y-93000000D03*
D18*
%TO.P,PS1,2,AC/N*%
%TO.N,Net-(PS1-AC{slash}N)*%
X162580000Y-88000000D03*
%TO.P,PS1,3,-Vout*%
%TO.N,GND*%
X133500000Y-98000000D03*
%TO.P,PS1,4,+Vout*%
%TO.N,12V*%
X133500000Y-83000000D03*
%TD*%
D19*
%TO.P,Q1,1,A1*%
%TO.N,Net-(PS1-AC{slash}N)*%
X188000000Y-103040000D03*
D20*
%TO.P,Q1,2,A2*%
%TO.N,Net-(Q1-A2)*%
X188000000Y-100500000D03*
%TO.P,Q1,3,G*%
%TO.N,Net-(Q1-G)*%
X188000000Y-97960000D03*
%TD*%
D10*
%TO.P,J7,1_1,1_1*%
%TO.N,Net-(PS1-AC{slash}L)*%
X114500000Y-76540000D03*
%TO.P,J7,1_2,1_2*%
X114500000Y-71460000D03*
%TD*%
%TO.P,J6,1_1,1_1*%
%TO.N,Net-(Q2-A2)*%
X189540000Y-54000000D03*
%TO.P,J6,1_2,1_2*%
X184460000Y-54000000D03*
%TD*%
D14*
%TO.P,J2,1,Pin_1*%
%TO.N,GND*%
X176500000Y-58000000D03*
D15*
%TO.P,J2,2,Pin_2*%
%TO.N,FLOW*%
X174500000Y-58000000D03*
%TO.P,J2,3,Pin_3*%
%TO.N,5V*%
X172500000Y-58000000D03*
%TD*%
D21*
%TO.P,U1,1*%
%TO.N,HEAT*%
X165425000Y-71960000D03*
D22*
%TO.P,U1,2*%
%TO.N,Net-(R1-Pad2)*%
X165425000Y-74500000D03*
%TO.P,U1,3,NC*%
%TO.N,unconnected-(U1-NC-Pad3)*%
X165425000Y-77040000D03*
%TO.P,U1,4*%
%TO.N,Net-(PS1-AC{slash}N)*%
X175585000Y-77040000D03*
%TO.P,U1,5,NC*%
%TO.N,unconnected-(U1-NC-Pad5)*%
X175585000Y-74500000D03*
%TO.P,U1,6*%
%TO.N,Net-(R4-Pad1)*%
X175585000Y-71960000D03*
%TD*%
D16*
%TO.P,R5,1*%
%TO.N,GND*%
X146500000Y-62675000D03*
%TO.P,R5,2*%
%TO.N,Net-(D2-K)*%
X146500000Y-64500000D03*
%TD*%
D10*
%TO.P,J9,1_1,1_1*%
%TO.N,Net-(PS1-AC{slash}L)*%
X114500000Y-93960000D03*
%TO.P,J9,1_2,1_2*%
X114500000Y-99040000D03*
%TD*%
D21*
%TO.P,U2,1*%
%TO.N,PUMP*%
X168840000Y-63460000D03*
D22*
%TO.P,U2,2*%
%TO.N,Net-(R3-Pad2)*%
X168840000Y-66000000D03*
%TO.P,U2,3,NC*%
%TO.N,unconnected-(U2-NC-Pad3)*%
X168840000Y-68540000D03*
%TO.P,U2,4*%
%TO.N,Net-(PS1-AC{slash}N)*%
X179000000Y-68540000D03*
%TO.P,U2,5,NC*%
%TO.N,unconnected-(U2-NC-Pad5)*%
X179000000Y-66000000D03*
%TO.P,U2,6*%
%TO.N,Net-(R2-Pad1)*%
X179000000Y-63460000D03*
%TD*%
D23*
%TO.N,GND*%
X146500000Y-54000000D03*
X166000000Y-54000000D03*
%TO.N,TEMP*%
X142000000Y-56000000D03*
X154000000Y-56000000D03*
%TO.N,FLOW*%
X156000000Y-56000000D03*
X174500000Y-56000000D03*
%TO.N,5V*%
X164000000Y-53000000D03*
X172500000Y-53000000D03*
X144000000Y-52500000D03*
%TO.N,Net-(PS1-AC{slash}N)*%
X195500000Y-102500000D03*
X192500000Y-104000000D03*
X191000000Y-104000000D03*
X194000000Y-104000000D03*
X195500000Y-104000000D03*
X192500000Y-102500000D03*
X194000000Y-102500000D03*
X191000000Y-102500000D03*
%TD*%
D24*
%TO.N,PUMP*%
X158000000Y-66500000D02*
X158000000Y-58000000D01*
X162500000Y-71000000D02*
X158000000Y-66500000D01*
X162500000Y-69800000D02*
X162500000Y-71000000D01*
X168840000Y-63460000D02*
X162500000Y-69800000D01*
%TO.N,Net-(D2-K)*%
X146500000Y-64500000D02*
X146500000Y-67500000D01*
%TO.N,GND*%
X146000000Y-58000000D02*
X146000000Y-54500000D01*
X146500000Y-62675000D02*
X146500000Y-58500000D01*
X146500000Y-58500000D02*
X146000000Y-58000000D01*
X146000000Y-54500000D02*
X146500000Y-54000000D01*
D25*
X166000000Y-58000000D02*
X166000000Y-54000000D01*
D24*
%TO.N,HEAT*%
X165000000Y-63000000D02*
X160000000Y-58000000D01*
%TO.N,TEMP*%
X154000000Y-58000000D02*
X154000000Y-56000000D01*
X142000000Y-58000000D02*
X142000000Y-56000000D01*
%TO.N,FLOW*%
X156000000Y-58000000D02*
X156000000Y-56000000D01*
X174500000Y-58000000D02*
X174500000Y-56000000D01*
%TO.N,5V*%
X144000000Y-58000000D02*
X144000000Y-52500000D01*
X144000000Y-58000000D02*
X144000000Y-58500000D01*
X164000000Y-58000000D02*
X164000000Y-53000000D01*
X172500000Y-58000000D02*
X172500000Y-53000000D01*
%TO.N,Net-(R4-Pad1)*%
X178000000Y-78500000D02*
X185500000Y-78500000D01*
X186500000Y-79500000D02*
X186500000Y-92092500D01*
D25*
X186582500Y-92175000D02*
X186500000Y-92092500D01*
D24*
X177500000Y-73875000D02*
X177500000Y-78000000D01*
D25*
X187500000Y-92175000D02*
X186582500Y-92175000D01*
D24*
X175585000Y-71960000D02*
X177500000Y-73875000D01*
X185500000Y-78500000D02*
X186500000Y-79500000D01*
X177500000Y-78000000D02*
X178000000Y-78500000D01*
D25*
%TO.N,Net-(Q1-G)*%
X187500000Y-94000000D02*
X187000000Y-94000000D01*
D24*
X187000000Y-94000000D02*
X187092500Y-93907500D01*
X188000000Y-97960000D02*
X186460000Y-97960000D01*
X186460000Y-97960000D02*
X186101000Y-97601000D01*
X186101000Y-97601000D02*
X186101000Y-94899000D01*
X187092500Y-93907500D02*
X187500000Y-93907500D01*
X186101000Y-94899000D02*
X187000000Y-94000000D01*
D26*
%TO.N,Net-(PS1-AC{slash}N)*%
X175585000Y-77040000D02*
X168827215Y-77040000D01*
X162580000Y-83287215D02*
X162580000Y-88000000D01*
X168827215Y-77040000D02*
X162580000Y-83287215D01*
D27*
%TO.N,Net-(PS1-AC{slash}L)*%
X114500000Y-93960000D02*
X114500000Y-93500000D01*
%TD*%
%TA.AperFunction,Conductor*%
%TO.N,Net-(F1-Pad1)*%
G36*
X116998969Y-81019685D02*
G01*
X117036544Y-81057427D01*
X127438351Y-97403123D01*
X127457736Y-97470250D01*
X127437752Y-97537201D01*
X127408137Y-97568896D01*
X123607123Y-100419657D01*
X123541681Y-100444133D01*
X123473394Y-100429343D01*
X123428111Y-100387032D01*
X116500000Y-89500000D01*
X116499999Y-89500000D01*
X112624000Y-89500000D01*
X112556961Y-89480315D01*
X112511206Y-89427511D01*
X112500000Y-89376000D01*
X112500000Y-81124000D01*
X112519685Y-81056961D01*
X112572489Y-81011206D01*
X112624000Y-81000000D01*
X116931930Y-81000000D01*
X116998969Y-81019685D01*
G37*
%TD.AperFunction*%
%TD*%
%TA.AperFunction,Conductor*%
%TO.N,Net-(PS1-AC{slash}N)*%
G36*
X186156162Y-102162456D02*
G01*
X186171490Y-102164042D01*
X186201916Y-102181929D01*
X186207301Y-102186233D01*
X186221793Y-102200725D01*
X186277726Y-102242597D01*
X186277734Y-102242603D01*
X186278046Y-102242773D01*
X186278047Y-102242774D01*
X186330544Y-102271439D01*
X186404015Y-102311556D01*
X186544607Y-102342139D01*
X186605576Y-102346499D01*
X186614297Y-102347123D01*
X186614299Y-102347123D01*
X186614300Y-102347123D01*
X186623878Y-102346437D01*
X186757810Y-102336859D01*
X186892619Y-102286577D01*
X186953942Y-102253092D01*
X186953946Y-102253090D01*
X187002835Y-102216490D01*
X187003827Y-102215779D01*
X187035662Y-102204619D01*
X187067306Y-102192816D01*
X187069562Y-102192735D01*
X187069763Y-102192665D01*
X187069993Y-102192720D01*
X187076154Y-102192500D01*
X188876025Y-102192500D01*
X188943064Y-102212185D01*
X188978131Y-102246142D01*
X188990487Y-102264074D01*
X188995562Y-102271439D01*
X188995565Y-102271443D01*
X189039002Y-102319453D01*
X189039007Y-102319458D01*
X189140559Y-102405567D01*
X189271436Y-102465338D01*
X189338475Y-102485023D01*
X189338479Y-102485024D01*
X189480895Y-102505500D01*
X189480898Y-102505500D01*
X190316561Y-102505500D01*
X190326707Y-102504955D01*
X190370599Y-102502603D01*
X190370607Y-102502602D01*
X190370609Y-102502602D01*
X190370610Y-102502602D01*
X190377603Y-102501849D01*
X190396957Y-102499769D01*
X190396967Y-102499767D01*
X190396970Y-102499767D01*
X190406569Y-102498211D01*
X190450369Y-102491114D01*
X190585178Y-102440832D01*
X190646501Y-102407347D01*
X190646503Y-102407346D01*
X190761685Y-102321121D01*
X190808105Y-102274699D01*
X190813389Y-102270460D01*
X190815253Y-102269692D01*
X190822099Y-102264074D01*
X190822196Y-102264009D01*
X190850110Y-102245357D01*
X190871536Y-102233903D01*
X190902675Y-102221006D01*
X190925918Y-102213955D01*
X190958970Y-102207381D01*
X190983154Y-102205000D01*
X191016842Y-102205000D01*
X191041027Y-102207381D01*
X191074079Y-102213956D01*
X191097325Y-102221006D01*
X191128458Y-102233902D01*
X191149890Y-102245359D01*
X191177898Y-102264074D01*
X191196686Y-102279493D01*
X191238320Y-102321126D01*
X191238339Y-102321143D01*
X191278581Y-102357290D01*
X191299226Y-102373926D01*
X191324930Y-102392461D01*
X191343105Y-102405567D01*
X191473982Y-102465338D01*
X191541021Y-102485023D01*
X191541025Y-102485024D01*
X191683441Y-102505500D01*
X191683444Y-102505500D01*
X191816561Y-102505500D01*
X191830069Y-102504775D01*
X191870599Y-102502603D01*
X191896957Y-102499769D01*
X191896972Y-102499766D01*
X191896977Y-102499766D01*
X191950457Y-102491095D01*
X191950461Y-102491094D01*
X191950461Y-102491093D01*
X191950466Y-102491093D01*
X191961023Y-102487152D01*
X191993920Y-102479998D01*
X192055266Y-102451980D01*
X192085264Y-102440785D01*
X192087640Y-102439487D01*
X192087639Y-102439485D01*
X192109324Y-102427640D01*
X192109361Y-102427620D01*
X192113236Y-102425504D01*
X192124797Y-102420225D01*
X192135423Y-102413395D01*
X192146490Y-102407353D01*
X192146503Y-102407346D01*
X192261685Y-102321121D01*
X192303312Y-102279492D01*
X192322099Y-102264074D01*
X192322196Y-102264009D01*
X192350110Y-102245357D01*
X192371536Y-102233903D01*
X192402675Y-102221006D01*
X192425918Y-102213955D01*
X192458970Y-102207381D01*
X192483154Y-102205000D01*
X192516842Y-102205000D01*
X192541027Y-102207381D01*
X192574079Y-102213956D01*
X192597325Y-102221006D01*
X192628458Y-102233902D01*
X192649890Y-102245359D01*
X192677898Y-102264074D01*
X192696686Y-102279493D01*
X192738320Y-102321126D01*
X192738339Y-102321143D01*
X192778581Y-102357290D01*
X192799226Y-102373926D01*
X192824930Y-102392461D01*
X192843105Y-102405567D01*
X192973982Y-102465338D01*
X193041021Y-102485023D01*
X193041025Y-102485024D01*
X193183441Y-102505500D01*
X193183444Y-102505500D01*
X193316561Y-102505500D01*
X193330069Y-102504775D01*
X193370599Y-102502603D01*
X193396957Y-102499769D01*
X193396972Y-102499766D01*
X193396977Y-102499766D01*
X193450457Y-102491095D01*
X193450461Y-102491094D01*
X193450461Y-102491093D01*
X193450466Y-102491093D01*
X193461023Y-102487152D01*
X193493920Y-102479998D01*
X193555266Y-102451980D01*
X193585264Y-102440785D01*
X193587640Y-102439487D01*
X193587639Y-102439485D01*
X193609324Y-102427640D01*
X193609361Y-102427620D01*
X193613236Y-102425504D01*
X193624797Y-102420225D01*
X193635423Y-102413395D01*
X193646490Y-102407353D01*
X193646503Y-102407346D01*
X193761685Y-102321121D01*
X193803312Y-102279492D01*
X193822099Y-102264074D01*
X193822196Y-102264009D01*
X193850110Y-102245357D01*
X193871536Y-102233903D01*
X193902675Y-102221006D01*
X193925918Y-102213955D01*
X193958970Y-102207381D01*
X193983154Y-102205000D01*
X194016842Y-102205000D01*
X194041027Y-102207381D01*
X194074079Y-102213956D01*
X194097325Y-102221006D01*
X194128458Y-102233902D01*
X194149890Y-102245359D01*
X194177898Y-102264074D01*
X194196686Y-102279493D01*
X194238320Y-102321126D01*
X194238339Y-102321143D01*
X194278581Y-102357290D01*
X194299226Y-102373926D01*
X194324930Y-102392461D01*
X194343105Y-102405567D01*
X194473982Y-102465338D01*
X194541021Y-102485023D01*
X194541025Y-102485024D01*
X194683441Y-102505500D01*
X194683444Y-102505500D01*
X194816561Y-102505500D01*
X194830069Y-102504775D01*
X194870599Y-102502603D01*
X194896957Y-102499769D01*
X194896972Y-102499766D01*
X194896977Y-102499766D01*
X194950457Y-102491095D01*
X194950461Y-102491094D01*
X194950461Y-102491093D01*
X194950466Y-102491093D01*
X194961023Y-102487152D01*
X194993920Y-102479998D01*
X195055266Y-102451980D01*
X195085264Y-102440785D01*
X195087640Y-102439487D01*
X195087639Y-102439485D01*
X195109324Y-102427640D01*
X195109361Y-102427620D01*
X195113236Y-102425504D01*
X195124797Y-102420225D01*
X195135423Y-102413395D01*
X195146490Y-102407353D01*
X195146503Y-102407346D01*
X195261685Y-102321121D01*
X195303312Y-102279492D01*
X195322099Y-102264074D01*
X195322196Y-102264009D01*
X195350110Y-102245357D01*
X195371536Y-102233903D01*
X195402675Y-102221006D01*
X195425918Y-102213955D01*
X195458970Y-102207381D01*
X195483154Y-102205000D01*
X195516842Y-102205000D01*
X195541027Y-102207381D01*
X195574079Y-102213956D01*
X195597325Y-102221006D01*
X195628458Y-102233902D01*
X195649890Y-102245359D01*
X195677898Y-102264074D01*
X195696686Y-102279493D01*
X195738320Y-102321126D01*
X195738339Y-102321143D01*
X195778581Y-102357290D01*
X195799226Y-102373926D01*
X195824930Y-102392461D01*
X195843105Y-102405567D01*
X195973982Y-102465338D01*
X196041021Y-102485023D01*
X196041025Y-102485024D01*
X196183441Y-102505500D01*
X196183444Y-102505500D01*
X196875500Y-102505500D01*
X196942539Y-102525185D01*
X196988294Y-102577989D01*
X196999500Y-102629500D01*
X196999500Y-104875500D01*
X196979815Y-104942539D01*
X196927011Y-104988294D01*
X196875500Y-104999500D01*
X186124500Y-104999500D01*
X186057461Y-104979815D01*
X186011706Y-104927011D01*
X186000500Y-104875500D01*
X186000500Y-102278794D01*
X186004841Y-102264009D01*
X186004229Y-102248613D01*
X186014484Y-102231167D01*
X186020185Y-102211755D01*
X186031827Y-102201666D01*
X186039638Y-102188381D01*
X186057698Y-102179249D01*
X186072989Y-102166000D01*
X186088239Y-102163807D01*
X186101991Y-102156854D01*
X186122119Y-102158935D01*
X186142147Y-102156056D01*
X186156162Y-102162456D01*
G37*
%TD.AperFunction*%
%TD*%
%TA.AperFunction,Conductor*%
%TO.N,Net-(Q1-A2)*%
G36*
X196942539Y-64019685D02*
G01*
X196988294Y-64072489D01*
X196999500Y-64124000D01*
X196999500Y-74376000D01*
X196979815Y-74443039D01*
X196927011Y-74488794D01*
X196875500Y-74500000D01*
X190000000Y-74500000D01*
X190000000Y-85500000D01*
X196875500Y-85500000D01*
X196942539Y-85519685D01*
X196988294Y-85572489D01*
X196999500Y-85624000D01*
X196999500Y-101876000D01*
X196979815Y-101943039D01*
X196927011Y-101988794D01*
X196875500Y-102000000D01*
X196183441Y-102000000D01*
X196116402Y-101980315D01*
X196095760Y-101963681D01*
X196010292Y-101878213D01*
X196010288Y-101878210D01*
X195879185Y-101790609D01*
X195879172Y-101790602D01*
X195733501Y-101730264D01*
X195733489Y-101730261D01*
X195578845Y-101699500D01*
X195578842Y-101699500D01*
X195421158Y-101699500D01*
X195421155Y-101699500D01*
X195266510Y-101730261D01*
X195266498Y-101730264D01*
X195120827Y-101790602D01*
X195120814Y-101790609D01*
X194989711Y-101878210D01*
X194989707Y-101878213D01*
X194904240Y-101963681D01*
X194877312Y-101978384D01*
X194851494Y-101994977D01*
X194845293Y-101995868D01*
X194842917Y-101997166D01*
X194816559Y-102000000D01*
X194683441Y-102000000D01*
X194616402Y-101980315D01*
X194595760Y-101963681D01*
X194510292Y-101878213D01*
X194510288Y-101878210D01*
X194379185Y-101790609D01*
X194379172Y-101790602D01*
X194233501Y-101730264D01*
X194233489Y-101730261D01*
X194078845Y-101699500D01*
X194078842Y-101699500D01*
X193921158Y-101699500D01*
X193921155Y-101699500D01*
X193766510Y-101730261D01*
X193766498Y-101730264D01*
X193620827Y-101790602D01*
X193620814Y-101790609D01*
X193489711Y-101878210D01*
X193489707Y-101878213D01*
X193404240Y-101963681D01*
X193377312Y-101978384D01*
X193351494Y-101994977D01*
X193345293Y-101995868D01*
X193342917Y-101997166D01*
X193316559Y-102000000D01*
X193183441Y-102000000D01*
X193116402Y-101980315D01*
X193095760Y-101963681D01*
X193010292Y-101878213D01*
X193010288Y-101878210D01*
X192879185Y-101790609D01*
X192879172Y-101790602D01*
X192733501Y-101730264D01*
X192733489Y-101730261D01*
X192578845Y-101699500D01*
X192578842Y-101699500D01*
X192421158Y-101699500D01*
X192421155Y-101699500D01*
X192266510Y-101730261D01*
X192266498Y-101730264D01*
X192120827Y-101790602D01*
X192120814Y-101790609D01*
X191989711Y-101878210D01*
X191989707Y-101878213D01*
X191904240Y-101963681D01*
X191877312Y-101978384D01*
X191851494Y-101994977D01*
X191845293Y-101995868D01*
X191842917Y-101997166D01*
X191816559Y-102000000D01*
X191683441Y-102000000D01*
X191616402Y-101980315D01*
X191595760Y-101963681D01*
X191510292Y-101878213D01*
X191510288Y-101878210D01*
X191379185Y-101790609D01*
X191379172Y-101790602D01*
X191233501Y-101730264D01*
X191233489Y-101730261D01*
X191078845Y-101699500D01*
X191078842Y-101699500D01*
X190921158Y-101699500D01*
X190921155Y-101699500D01*
X190766510Y-101730261D01*
X190766498Y-101730264D01*
X190620827Y-101790602D01*
X190620814Y-101790609D01*
X190489711Y-101878210D01*
X190489707Y-101878213D01*
X190404240Y-101963681D01*
X190342917Y-101997166D01*
X190316559Y-102000000D01*
X189480895Y-102000000D01*
X189413856Y-101980315D01*
X189370411Y-101932296D01*
X189328050Y-101849158D01*
X189328046Y-101849154D01*
X189328045Y-101849152D01*
X189238347Y-101759454D01*
X189238344Y-101759452D01*
X189238342Y-101759450D01*
X189161517Y-101720305D01*
X189125301Y-101701852D01*
X189031524Y-101687000D01*
X186968482Y-101687000D01*
X186889560Y-101699500D01*
X186874696Y-101701854D01*
X186761658Y-101759450D01*
X186761657Y-101759451D01*
X186761652Y-101759454D01*
X186711681Y-101809426D01*
X186650358Y-101842911D01*
X186580666Y-101837927D01*
X186524733Y-101796055D01*
X186500316Y-101730591D01*
X186500000Y-101721745D01*
X186500000Y-99124000D01*
X186519685Y-99056961D01*
X186572489Y-99011206D01*
X186624000Y-99000000D01*
X187041785Y-99000000D01*
X187108824Y-99019685D01*
X187114660Y-99023674D01*
X187243373Y-99117190D01*
X187336442Y-99164611D01*
X187433127Y-99213875D01*
X187433130Y-99213876D01*
X187534400Y-99246780D01*
X187635672Y-99279685D01*
X187733092Y-99295114D01*
X187846012Y-99313000D01*
X187846017Y-99313000D01*
X188153988Y-99313000D01*
X188255958Y-99296848D01*
X188364328Y-99279685D01*
X188566872Y-99213875D01*
X188756627Y-99117190D01*
X188885330Y-99023681D01*
X188951136Y-99000202D01*
X188958215Y-99000000D01*
X190000000Y-99000000D01*
X190000000Y-90000000D01*
X187185288Y-89061762D01*
X187127913Y-89021888D01*
X187101205Y-88957324D01*
X187100500Y-88944125D01*
X187100500Y-84881006D01*
X187100537Y-84877983D01*
X187499003Y-68540848D01*
X187520316Y-68474311D01*
X187525068Y-68467768D01*
X190962767Y-64047871D01*
X191019464Y-64007039D01*
X191060647Y-64000000D01*
X196875500Y-64000000D01*
X196942539Y-64019685D01*
G37*
%TD.AperFunction*%
%TD*%
M02*
